<?xml version="1.0" encoding="utf-8"?>
<!-- Generator: Adobe Illustrator 17.1.0, SVG Export Plug-In . SVG Version: 6.00 Build 0)  -->
<!DOCTYPE svg PUBLIC "-//W3C//DTD SVG 1.1//EN" "http://www.w3.org/Graphics/SVG/1.1/DTD/svg11.dtd">
<svg version="1.1" id="Layer_1" xmlns="http://www.w3.org/2000/svg" xmlns:xlink="http://www.w3.org/1999/xlink" x="0px" y="0px"
	 width="30px" height="30px" viewBox="0 0 30 30" enable-background="new 0 0 30 30" xml:space="preserve">
<g>
	<path fill="#333333" d="M27,16.8c0,0.2-0.2,0.5-0.4,0.5l-2.8,0.4c-0.2,0.5-0.3,0.9-0.6,1.4c0.5,0.7,1.1,1.4,1.6,2.1
		c0.1,0.1,0.2,0.2,0.2,0.4c0,0.1,0,0.2-0.1,0.3c-0.4,0.5-2.4,2.7-2.9,2.7c-0.1,0-0.3-0.1-0.4-0.1l-2.1-1.6c-0.4,0.2-0.9,0.4-1.4,0.6
		c-0.1,0.9-0.2,1.9-0.4,2.8c-0.1,0.2-0.3,0.4-0.5,0.4h-3.4c-0.3,0-0.5-0.2-0.5-0.5l-0.4-2.8c-0.5-0.2-0.9-0.3-1.4-0.6l-2.1,1.6
		c-0.1,0.1-0.2,0.1-0.4,0.1c-0.1,0-0.3-0.1-0.4-0.2c-0.8-0.7-1.9-1.7-2.5-2.5c-0.1-0.1-0.1-0.2-0.1-0.3c0-0.1,0-0.2,0.1-0.3
		c0.5-0.7,1.1-1.4,1.6-2.1c-0.3-0.5-0.5-1-0.6-1.5l-2.8-0.4c-0.3,0-0.4-0.3-0.4-0.5v-3.4c0-0.2,0.2-0.5,0.4-0.5l2.8-0.4
		C7,11.9,7.2,11.4,7.5,11C7,10.2,6.4,9.6,5.9,8.9C5.8,8.8,5.7,8.6,5.7,8.5c0-0.1,0.1-0.2,0.1-0.3c0.4-0.5,2.4-2.7,2.9-2.7
		c0.1,0,0.3,0.1,0.4,0.2l2.1,1.6c0.4-0.2,0.9-0.4,1.4-0.6c0.1-0.9,0.2-1.9,0.4-2.8c0.1-0.2,0.3-0.4,0.5-0.4H17
		c0.3,0,0.5,0.2,0.5,0.5L18,6.6c0.5,0.2,0.9,0.3,1.4,0.6l2.2-1.6c0.1-0.1,0.2-0.1,0.4-0.1c0.1,0,0.3,0.1,0.4,0.2
		c0.8,0.7,1.9,1.7,2.5,2.6c0.1,0.1,0.1,0.2,0.1,0.3c0,0.1,0,0.2-0.1,0.3c-0.5,0.7-1.1,1.4-1.6,2.1c0.3,0.5,0.5,1,0.6,1.5l2.8,0.4
		c0.3,0,0.4,0.3,0.4,0.5V16.8z M15.3,11.2c-2.1,0-3.9,1.7-3.9,3.9s1.7,3.9,3.9,3.9s3.9-1.7,3.9-3.9S17.4,11.2,15.3,11.2z"/>
</g>
</svg>
