<?xml version="1.0" encoding="utf-8"?>
<!-- Generator: Adobe Illustrator 17.1.0, SVG Export Plug-In . SVG Version: 6.00 Build 0)  -->
<!DOCTYPE svg PUBLIC "-//W3C//DTD SVG 1.1//EN" "http://www.w3.org/Graphics/SVG/1.1/DTD/svg11.dtd">
<svg version="1.1" id="Layer_1" xmlns="http://www.w3.org/2000/svg" xmlns:xlink="http://www.w3.org/1999/xlink" x="0px" y="0px"
	 width="105px" height="35px" viewBox="0 0 105 35" enable-background="new 0 0 105 35" xml:space="preserve">
<g>
	<path fill="#231F20" d="M40.6,28.8c-0.1-0.4-0.1-1-0.1-1.8c-0.7,1.2-1.8,1.9-3.2,1.9c-1.1,0-2-0.6-2.4-1.5
		c-0.2-0.5-0.2-1.2-0.2-2.8v-2.9c0-0.9-0.1-1.3-0.3-1.5c-0.1-0.1-0.3-0.1-0.6-0.2c-0.2,0-0.2,0-0.3,0v-0.4l2.8-0.2
		c-0.1,1.7-0.1,2.1-0.1,3.3v1.5c0,1.8,0,2.3,0.2,2.9c0.2,0.7,0.7,1,1.4,1c1,0,1.8-0.6,2.3-1.7c0.3-0.6,0.3-1,0.3-2.1v-2.7
		c0-0.9-0.1-1.3-0.3-1.4c-0.1-0.1-0.3-0.2-0.6-0.2h-0.3v-0.4l2.8-0.2C42,20.8,42,22,42,22.8v3.4c0,1.8,0.2,2.1,1.1,2.1h0.1v0.4
		L40.6,28.8z"/>
	<path fill="#231F20" d="M47.7,17.5c1.1-1.3,2.6-2,4.5-2c1.9,0,3.4,0.7,4.5,2c1,1.2,1.5,2.8,1.5,4.7c0,1.9-0.5,3.4-1.5,4.6
		c-1.1,1.4-2.6,2-4.5,2c-1.9,0-3.5-0.7-4.5-2c-1-1.2-1.5-2.8-1.5-4.6C46.2,20.3,46.7,18.8,47.7,17.5z M49,26.5
		c0.7,1.3,1.8,1.9,3.3,1.9c1.4,0,2.5-0.7,3.3-1.9c0.6-1.2,1-2.5,1-4.3c0-1.7-0.3-3.1-1-4.3c-0.7-1.3-1.8-1.9-3.3-1.9
		c-1.4,0-2.5,0.7-3.3,1.9c-0.6,1.2-1,2.6-1,4.3C48,23.9,48.3,25.3,49,26.5z"/>
	<path fill="#231F20" d="M62.3,26.1c0,1,0.1,1.5,0.2,1.8c0.2,0.2,0.5,0.4,0.9,0.4c0.4,0,0.7-0.1,1.1-0.3l0.2,0.5
		c-0.6,0.3-1.2,0.4-1.8,0.4c-0.9,0-1.5-0.3-1.8-0.9c-0.2-0.4-0.2-0.7-0.2-2.1v-5.8h-1.1v-0.4c1-0.1,1.6-0.8,1.8-2.5l0.8-0.2
		c0,0.8-0.1,1.4-0.1,2.6h2.1v0.5h-2.1V26.1z"/>
	<path fill="#231F20" d="M68.1,26.1c0,1,0.1,1.5,0.2,1.8c0.2,0.2,0.5,0.4,0.9,0.4c0.4,0,0.7-0.1,1.1-0.3l0.2,0.5
		c-0.6,0.3-1.2,0.4-1.8,0.4c-0.9,0-1.5-0.3-1.8-0.9c-0.2-0.4-0.2-0.7-0.2-2.1v-5.8h-1.1v-0.4c1-0.1,1.6-0.8,1.8-2.5l0.8-0.2
		c0,0.8-0.1,1.4-0.1,2.6h2.1v0.5h-2.1V26.1z"/>
	<path fill="#231F20" d="M80,28.6c-0.7,0.1-1.5,0.2-1.8,0.2c-0.5,0-0.7-0.3-0.7-1.5c-0.3,0.3-0.5,0.5-0.9,0.8
		c-0.8,0.6-1.4,0.8-2.3,0.8c-0.8,0-1.4-0.2-1.8-0.6c-0.5-0.4-0.8-1.1-0.8-1.9c0-1.4,0.9-2.3,2.6-2.7c0.9-0.2,1.9-0.3,3.2-0.4v-1.1
		c0-0.8-0.1-1.2-0.2-1.6c-0.2-0.5-0.7-0.7-1.5-0.7c-1.2,0-1.8,0.5-1.8,1.6c0,0.4-0.1,0.5-0.2,0.6c-0.1,0.1-0.4,0.1-0.6,0.1
		c-0.6,0-0.9-0.2-0.9-0.5c0-0.6,0.5-1.3,1.2-1.7c0.7-0.4,1.5-0.6,2.6-0.6c1.1,0,2,0.3,2.4,0.8c0.4,0.4,0.5,1,0.5,2
		c0,0.1,0,0.1,0,1.8l0,1.7l0,0.8c0,0.7,0.1,1.4,0.2,1.5c0.1,0.1,0.3,0.2,1,0.2V28.6z M77.4,23.7c-1.6,0.1-2.3,0.3-3,0.6
		c-0.8,0.4-1.2,1.1-1.2,2c0,1.1,0.6,1.9,1.5,1.9c0.9,0,1.8-0.5,2.3-1.3c0.3-0.5,0.4-1.2,0.4-2.4V23.7z"/>
	<path fill="#231F20" d="M84.4,28.7h-0.9l-2.2-7.4c-0.3-1-0.5-1.2-1.4-1.3v-0.4h3.9v0.4c-0.9,0-1.2,0.2-1.2,0.7
		c0,0.1,0.1,0.4,0.2,0.8l1.6,5.6l2.3-7.2h0.7l2.3,7.2l1.5-5.2c0.1-0.4,0.2-0.8,0.2-1c0-0.3-0.2-0.5-0.5-0.6
		c-0.2-0.1-0.3-0.1-0.8-0.1v-0.4h3.5v0.4c-1,0.1-1.3,0.4-1.7,1.8l-2.2,6.9h-0.9l-2.2-6.8L84.4,28.7z"/>
	<path fill="#231F20" d="M102.2,28.6c-0.7,0.1-1.5,0.2-1.8,0.2c-0.5,0-0.7-0.3-0.7-1.5c-0.3,0.3-0.5,0.5-0.9,0.8
		c-0.8,0.6-1.4,0.8-2.3,0.8c-0.8,0-1.4-0.2-1.8-0.6c-0.5-0.4-0.8-1.1-0.8-1.9c0-1.4,0.9-2.3,2.6-2.7c0.9-0.2,1.9-0.3,3.2-0.4v-1.1
		c0-0.8-0.1-1.2-0.2-1.6c-0.2-0.5-0.7-0.7-1.5-0.7c-1.2,0-1.8,0.5-1.8,1.6c0,0.4-0.1,0.5-0.2,0.6c-0.1,0.1-0.4,0.1-0.6,0.1
		c-0.6,0-0.9-0.2-0.9-0.5c0-0.6,0.5-1.3,1.2-1.7c0.7-0.4,1.5-0.6,2.6-0.6c1.1,0,2,0.3,2.4,0.8c0.4,0.4,0.5,1,0.5,2
		c0,0.1,0,0.1,0,1.8l0,1.7l0,0.8c0,0.7,0.1,1.4,0.2,1.5c0.1,0.1,0.3,0.2,1,0.2V28.6z M99.6,23.7c-1.6,0.1-2.3,0.3-3,0.6
		c-0.8,0.4-1.2,1.1-1.2,2c0,1.1,0.6,1.9,1.5,1.9c0.9,0,1.8-0.5,2.3-1.3c0.3-0.5,0.4-1.2,0.4-2.4V23.7z"/>
	<g>
		<path fill="#231F20" d="M8.8,6.7c-0.6,0-3,0-3,0s0,1.1,0,1.6c-0.8,0-3,0-3,0v23.2h24.4V8.3c0,0-2.2,0-3,0c0-0.5,0-1.6,0-1.6
			s-2.5,0-3,0C20,4.6,17.8,3.5,15,3.5C12.3,3.5,10.1,4.6,8.8,6.7z M9.1,8h0.4l0.2-0.3C11,5.3,13.3,4.8,15,4.8c1.7,0,4,0.5,5.3,2.9
			L20.5,8c0,0,1.7,0,2.5,0c0,0.5,0,1.6,0,1.6s2.2,0,3,0c0,1.2,0,19.4,0,20.6c-1.2,0-20.6,0-21.8,0c0-1.2,0-19.4,0-20.6
			c0.8,0,3,0,3,0s0-1.1,0-1.6C7.8,8,9.1,8,9.1,8z"/>
	</g>
	<g>
		<g>
			<polygon fill="#231F20" points="5.5,26.7 24.6,26.7 24.6,27.4 5.5,27.4 5.5,26.7 			"/>
			<path fill="#231F20" d="M15,27.1"/>
		</g>
	</g>
	<g>
		<g>
			<polygon fill="#231F20" points="4.9,28 25.1,28 25.1,28.7 4.9,28.7 4.9,28 			"/>
			<path fill="#231F20" d="M15,28.3"/>
		</g>
	</g>
	<g>
		<path fill="#231F20" d="M14.8,11.1l-9.5,3.4l0.4,1.2c0,0,8.9-3.2,9.3-3.4c0.4,0.2,9.3,3.4,9.3,3.4l0.4-1.2L15,11L14.8,11.1z"/>
	</g>
	<path fill="#231F20" d="M23.2,24.7l-0.2-7.3c0.1,0,0.1,0,0.2,0c0.2,0,0.4-0.2,0.4-0.4c0-0.1,0-0.2-0.1-0.3h0.3v-0.7H6.2v0.7h0.3
		c-0.1,0.1-0.1,0.2-0.1,0.3c0,0.2,0.2,0.4,0.4,0.4c0.1,0,0.1,0,0.2,0l-0.2,7.3H6.1v1.2h17.8v-1.2H23.2z M10.5,24.7h-2l-0.2-7.3
		c0.1,0,0.1,0,0.2,0c0.2,0,0.4-0.2,0.4-0.4c0-0.1,0-0.2-0.1-0.3h1.5c-0.1,0.1-0.1,0.2-0.1,0.3c0,0.2,0.2,0.4,0.4,0.4
		c0.1,0,0.1,0,0.2,0L10.5,24.7z M14.2,24.7h-2L12,17.5c0.1,0,0.1,0,0.2,0c0.2,0,0.4-0.2,0.4-0.4c0-0.1,0-0.2-0.1-0.3h1.5
		c-0.1,0.1-0.1,0.2-0.1,0.3c0,0.2,0.2,0.4,0.4,0.4c0.1,0,0.1,0,0.2,0L14.2,24.7z M17.9,24.7h-2l-0.2-7.3c0.1,0,0.1,0,0.2,0
		c0.2,0,0.4-0.2,0.4-0.4c0-0.1,0-0.2-0.1-0.3h1.5c-0.1,0.1-0.1,0.2-0.1,0.3c0,0.2,0.2,0.4,0.4,0.4c0.1,0,0.1,0,0.2,0L17.9,24.7z
		 M21.6,24.7h-2l-0.2-7.3c0.1,0,0.1,0,0.2,0c0.2,0,0.4-0.2,0.4-0.4c0-0.1,0-0.2-0.1-0.3h1.5c-0.1,0.1-0.1,0.2-0.1,0.3
		c0,0.2,0.2,0.4,0.4,0.4c0.1,0,0.1,0,0.2,0L21.6,24.7z"/>
</g>
</svg>
