<?xml version="1.0" encoding="utf-8"?>
<!-- Generator: Adobe Illustrator 17.1.0, SVG Export Plug-In . SVG Version: 6.00 Build 0)  -->
<!DOCTYPE svg PUBLIC "-//W3C//DTD SVG 1.1//EN" "http://www.w3.org/Graphics/SVG/1.1/DTD/svg11.dtd">
<svg version="1.1" id="Layer_1" xmlns="http://www.w3.org/2000/svg" xmlns:xlink="http://www.w3.org/1999/xlink" x="0px" y="0px"
	 width="180px" height="185px" viewBox="0 0 180 185" enable-background="new 0 0 180 185" xml:space="preserve">
<g>
	<g>
		<path fill="#666766" d="M7.3,132.8c-0.5,0.4-1.1,0.6-1.8,0.6c-0.4,0-0.7,0-1.5-0.2c-0.1,0-0.3,0-0.4,0c-0.2,0-0.4,0-0.8,0.1
			l0.1-2.3h0.4c0,0.7,0.2,1.1,0.5,1.4c0.4,0.4,0.9,0.6,1.7,0.6c1,0,1.6-0.5,1.6-1.5c0-0.9-0.4-1.3-2.1-2.1c-1-0.5-1.3-0.7-1.6-1
			c-0.3-0.3-0.5-0.8-0.5-1.3c0-0.7,0.2-1.2,0.7-1.6c0.4-0.4,0.9-0.5,1.6-0.5c0.4,0,0.6,0,1.3,0.2c0.2,0,0.3,0.1,0.4,0.1
			c0.2,0,0.4-0.1,0.7-0.2l-0.1,2.2H7.1c0-0.6-0.1-0.9-0.3-1.2c-0.3-0.5-0.9-0.8-1.6-0.8c-0.5,0-0.9,0.2-1.2,0.5
			c-0.2,0.3-0.3,0.6-0.3,1c0,0.7,0.4,1.1,1.7,1.7c1.4,0.7,1.9,1,2.2,1.5c0.2,0.3,0.3,0.7,0.3,1.2C7.9,131.9,7.7,132.4,7.3,132.8z"/>
		<path fill="#666766" d="M11.7,133.4c-1.6,0-2.7-1.2-2.7-2.9c0-1.8,1.1-3.1,2.7-3.1c1,0,1.8,0.5,2.1,1.4c0.1,0.3,0.2,0.6,0.2,1.2
			h-4c0,0.8,0.1,1.2,0.3,1.7c0.3,0.8,0.9,1.2,1.7,1.2c0.8,0,1.4-0.4,1.9-1.3l0.3,0.1C13.6,132.9,12.8,133.4,11.7,133.4z M12.8,128.6
			c-0.2-0.6-0.6-0.8-1.2-0.8c-0.5,0-1,0.3-1.3,0.9c-0.2,0.3-0.2,0.6-0.3,1.2h3C13,129.2,12.9,128.9,12.8,128.6z"/>
		<path fill="#666766" d="M18.5,128.6c-0.2,0-0.3-0.1-0.4-0.3c-0.1-0.2-0.1-0.3-0.3-0.3c-0.3,0-0.6,0.2-0.8,0.7
			c-0.2,0.4-0.3,0.8-0.3,1.4v1.8c0,1.1,0.1,1.1,0.8,1.2v0.2h-2.6V133c0.8,0,0.8-0.1,0.8-1.2v-3c0-0.8-0.1-1-0.8-1v-0.2l1.7-0.1
			c0,0.6,0,0.7,0,0.9c0,0.1,0,0.2,0,0.4c0.4-0.9,1-1.3,1.6-1.3c0.5,0,0.9,0.3,0.9,0.7C19.1,128.4,18.8,128.6,18.5,128.6z"/>
		<path fill="#666766" d="M24.1,129l-1.6,4.4h-0.6l-1.8-4.7c-0.2-0.7-0.4-0.8-0.9-0.8v-0.2h2.5v0.2c-0.5,0-0.7,0.1-0.7,0.4
			c0,0.1,0.1,0.4,0.2,0.6l1.3,3.6l1.3-3.5c0.1-0.2,0.1-0.5,0.1-0.6c0-0.3-0.3-0.4-0.9-0.5v-0.2h2.3v0.2
			C24.7,127.9,24.4,128.1,24.1,129z"/>
		<path fill="#666766" d="M25.8,133.3V133c0.8,0,0.8-0.1,0.8-1.2v-3c0-0.6,0-0.8-0.2-0.9c-0.1-0.1-0.3-0.1-0.7-0.1v-0.2l1.8-0.1
			c0,0.7-0.1,1.6-0.1,2.1v2.3c0,1,0.1,1.1,0.8,1.2v0.2H25.8z M27,126.4c-0.4,0-0.6-0.3-0.6-0.6c0-0.3,0.3-0.6,0.6-0.6
			c0.3,0,0.6,0.3,0.6,0.6C27.7,126.1,27.4,126.4,27,126.4z"/>
		<path fill="#666766" d="M32,133.4c-1.6,0-2.7-1.2-2.7-2.9c0-1.8,1.1-3.1,2.8-3.1c0.7,0,1.3,0.2,1.7,0.6c0.3,0.3,0.5,0.6,0.5,0.9
			c0,0.2-0.2,0.3-0.6,0.3c-0.2,0-0.3,0-0.4-0.1c-0.1-0.1-0.1-0.1-0.1-0.4c-0.1-0.6-0.5-1-1.2-1c-1,0-1.6,0.9-1.6,2.6
			c0,1.7,0.7,2.8,1.9,2.8c0.8,0,1.4-0.5,1.8-1.4l0.3,0.2C33.8,132.9,33,133.4,32,133.4z"/>
		<path fill="#666766" d="M37.9,133.4c-1.6,0-2.7-1.2-2.7-2.9c0-1.8,1.1-3.1,2.7-3.1c1,0,1.8,0.5,2.1,1.4c0.1,0.3,0.2,0.6,0.2,1.2
			h-4c0,0.8,0.1,1.2,0.3,1.7c0.3,0.8,0.9,1.2,1.7,1.2c0.8,0,1.4-0.4,1.9-1.3l0.3,0.1C39.8,132.9,39,133.4,37.9,133.4z M39,128.6
			c-0.2-0.6-0.6-0.8-1.2-0.8c-0.5,0-1,0.3-1.3,0.9c-0.2,0.3-0.2,0.6-0.3,1.2h3C39.2,129.2,39.1,128.9,39,128.6z"/>
		<path fill="#666766" d="M49.3,133.4l0-1c-0.5,0.7-1.1,1-1.9,1c-0.6,0-1.2-0.3-1.7-0.8c-0.4-0.5-0.6-1.2-0.6-2.1
			c0-1.9,1-3.1,2.5-3.1c0.7,0,1.2,0.2,1.6,0.8v-1.7c0-1.1,0-1.1-0.8-1.1v-0.2l1.8-0.1c0,0.7-0.1,1.4-0.1,2.2v4.4
			c0,1.1,0,1.1,0.1,1.2c0.1,0.1,0.2,0.2,0.5,0.2h0.1v0.2L49.3,133.4z M47.6,127.7c-1,0-1.6,1-1.6,2.7c0,1.7,0.5,2.7,1.5,2.7
			c1.1,0,1.7-1,1.7-2.7C49.2,128.7,48.6,127.7,47.6,127.7z"/>
		<path fill="#666766" d="M52.2,128l-0.2-0.3c0.6-0.3,0.9-0.7,0.9-1.1c0-0.2,0-0.2-0.4-0.3c-0.3-0.1-0.5-0.3-0.5-0.6
			c0-0.4,0.3-0.7,0.8-0.7c0.5,0,0.9,0.4,0.9,1C53.6,126.8,53.1,127.6,52.2,128z"/>
		<path fill="#666766" d="M59.1,133.4c-0.3,0-0.4-0.2-0.5-0.9c-0.2,0.2-0.3,0.3-0.6,0.5c-0.5,0.4-0.9,0.5-1.5,0.5
			c-0.5,0-0.9-0.1-1.1-0.3c-0.3-0.3-0.5-0.7-0.5-1.2c0-0.9,0.6-1.5,1.7-1.7c0.6-0.1,1.2-0.2,2-0.3v-0.7c0-0.5,0-0.8-0.2-1
			c-0.1-0.3-0.5-0.4-0.9-0.4c-0.7,0-1.1,0.3-1.2,1c0,0.2,0,0.3-0.1,0.4c-0.1,0.1-0.2,0.1-0.4,0.1c-0.4,0-0.6-0.1-0.6-0.3
			c0-0.4,0.3-0.8,0.8-1.1c0.4-0.2,1-0.4,1.6-0.4c0.7,0,1.2,0.2,1.5,0.5c0.2,0.3,0.3,0.7,0.3,1.3c0,0,0,0,0,1.1l0,1.1l0,0.5
			c0,0.5,0.1,0.9,0.1,1c0.1,0.1,0.2,0.1,0.6,0.1v0.2C59.9,133.3,59.4,133.4,59.1,133.4z M58.7,130.1c-1,0.1-1.4,0.2-1.9,0.4
			c-0.5,0.2-0.8,0.7-0.8,1.3c0,0.7,0.4,1.2,0.9,1.2c0.6,0,1.2-0.3,1.4-0.8c0.2-0.3,0.3-0.8,0.3-1.5V130.1z"/>
		<path fill="#666766" d="M66.1,132.5c-0.4,0.6-1.1,0.9-1.9,0.9c-0.7,0-1-0.2-1.7-0.7v1.6c0,1,0.1,1.1,0.9,1.1v0.3h-2.6v-0.3
			c0.8,0,0.8-0.1,0.8-1.1v-5.4c0-0.8-0.1-1-0.8-1v-0.2l1.7-0.1v1c0.4-0.7,1.1-1,1.8-1c1.4,0,2.3,1.1,2.3,2.8
			C66.8,131.1,66.5,131.9,66.1,132.5z M64.3,127.8c-0.5,0-1,0.3-1.3,0.7c-0.3,0.5-0.4,1.1-0.4,2c0,1.7,0.6,2.6,1.6,2.6
			c1,0,1.5-0.9,1.5-2.7C65.7,128.6,65.2,127.8,64.3,127.8z"/>
		<path fill="#666766" d="M72.8,132.5c-0.4,0.6-1.1,0.9-1.9,0.9c-0.7,0-1-0.2-1.7-0.7v1.6c0,1,0.1,1.1,0.9,1.1v0.3h-2.6v-0.3
			c0.8,0,0.8-0.1,0.8-1.1v-5.4c0-0.8-0.1-1-0.8-1v-0.2l1.7-0.1v1c0.4-0.7,1.1-1,1.8-1c1.4,0,2.3,1.1,2.3,2.8
			C73.5,131.1,73.3,131.9,72.8,132.5z M71,127.8c-0.5,0-1,0.3-1.3,0.7c-0.3,0.5-0.4,1.1-0.4,2c0,1.7,0.6,2.6,1.6,2.6
			c1,0,1.5-0.9,1.5-2.7C72.4,128.6,72,127.8,71,127.8z"/>
		<path fill="#666766" d="M78.8,133.4c0-0.3-0.1-0.6-0.1-1.2c-0.4,0.8-1.2,1.2-2,1.2c-0.7,0-1.3-0.3-1.5-0.9
			c-0.1-0.3-0.2-0.8-0.2-1.7v-1.9c0-0.6,0-0.8-0.2-0.9c-0.1-0.1-0.2-0.1-0.4-0.1c-0.1,0-0.1,0-0.2,0v-0.2l1.7-0.1
			c-0.1,1-0.1,1.3-0.1,2.1v1c0,1.1,0,1.4,0.2,1.8c0.1,0.4,0.5,0.6,0.9,0.6c0.6,0,1.2-0.4,1.5-1.1c0.2-0.4,0.2-0.6,0.2-1.3v-1.7
			c0-0.6,0-0.8-0.2-0.9c-0.1-0.1-0.2-0.1-0.4-0.1H78v-0.2l1.7-0.1c0,0.8-0.1,1.6-0.1,2.1v2.1c0,1.1,0.1,1.3,0.7,1.3h0.1v0.2
			L78.8,133.4z"/>
		<path fill="#666766" d="M81.1,133.3V133c0.8,0,0.8-0.1,0.8-1.2v-3c0-0.6,0-0.8-0.2-0.9c-0.1-0.1-0.3-0.1-0.7-0.1v-0.2l1.8-0.1
			c0,0.7-0.1,1.6-0.1,2.1v2.3c0,1,0.1,1.1,0.8,1.2v0.2H81.1z M82.4,126.4c-0.4,0-0.6-0.3-0.6-0.6c0-0.3,0.3-0.6,0.6-0.6
			c0.3,0,0.6,0.3,0.6,0.6C83,126.1,82.7,126.4,82.4,126.4z"/>
		<path fill="#666766" d="M92.4,133.4c-0.3,0-0.4-0.2-0.5-0.9c-0.2,0.2-0.3,0.3-0.6,0.5c-0.5,0.4-0.9,0.5-1.5,0.5
			c-0.5,0-0.9-0.1-1.1-0.3c-0.3-0.3-0.5-0.7-0.5-1.2c0-0.9,0.6-1.5,1.7-1.7c0.6-0.1,1.2-0.2,2-0.3v-0.7c0-0.5,0-0.8-0.2-1
			c-0.1-0.3-0.5-0.4-0.9-0.4c-0.7,0-1.1,0.3-1.2,1c0,0.2,0,0.3-0.1,0.4c-0.1,0.1-0.2,0.1-0.4,0.1c-0.4,0-0.6-0.1-0.6-0.3
			c0-0.4,0.3-0.8,0.8-1.1c0.4-0.2,1-0.4,1.6-0.4c0.7,0,1.2,0.2,1.5,0.5c0.2,0.3,0.3,0.7,0.3,1.3c0,0,0,0,0,1.1l0,1.1l0,0.5
			c0,0.5,0.1,0.9,0.1,1c0.1,0.1,0.2,0.1,0.6,0.1v0.2C93.2,133.3,92.7,133.4,92.4,133.4z M92,130.1c-1,0.1-1.4,0.2-1.9,0.4
			c-0.5,0.2-0.8,0.7-0.8,1.3c0,0.7,0.4,1.2,0.9,1.2c0.6,0,1.2-0.3,1.4-0.8c0.2-0.3,0.3-0.8,0.3-1.5V130.1z M91.2,126.9l-1.4-1.5
			l0-0.2H91l0.6,1.5L91.2,126.9z"/>
		<path fill="#666766" d="M98.1,133.3V133c0.7,0,0.8-0.1,0.8-1.2v-5.5c0-0.6,0-0.8-0.2-0.9c-0.1-0.1-0.2-0.1-0.6-0.1v-0.2l1.8-0.1
			c0,0.8-0.1,1.7-0.1,2.2v4.6c0,1,0.1,1.1,0.8,1.2v0.2H98.1z"/>
		<path fill="#666766" d="M102.1,128l-0.2-0.3c0.6-0.3,0.9-0.7,0.9-1.1c0-0.2,0-0.2-0.4-0.3c-0.3-0.1-0.5-0.3-0.5-0.6
			c0-0.4,0.3-0.7,0.8-0.7c0.5,0,0.9,0.4,0.9,1C103.4,126.8,102.9,127.6,102.1,128z"/>
		<path fill="#666766" d="M107.6,133.4c-1.6,0-2.7-1.2-2.7-2.9c0-1.8,1.1-3.1,2.7-3.1c1,0,1.8,0.5,2.1,1.4c0.1,0.3,0.2,0.6,0.2,1.2
			h-4c0,0.8,0.1,1.2,0.3,1.7c0.3,0.8,0.9,1.2,1.7,1.2c0.8,0,1.4-0.4,1.9-1.3l0.3,0.1C109.5,132.9,108.7,133.4,107.6,133.4z
			 M108.7,128.6c-0.2-0.6-0.6-0.8-1.2-0.8c-0.5,0-1,0.3-1.3,0.9c-0.2,0.3-0.2,0.6-0.3,1.2h3C108.9,129.2,108.8,128.9,108.7,128.6z"
			/>
		<path fill="#666766" d="M114.5,133.3V133c0.4,0,0.6-0.1,0.7-0.2c0.1-0.1,0.1-0.2,0.1-0.4c0-0.1,0-0.5,0-0.6v-2.3
			c0-0.6-0.1-1-0.2-1.2c-0.2-0.4-0.5-0.6-1-0.6c-0.5,0-1,0.2-1.3,0.8c-0.2,0.4-0.4,0.9-0.4,1.4v1.9c0,1.1,0.1,1.1,0.8,1.2v0.2h-2.6
			V133c0.8,0,0.8-0.1,0.8-1.2v-3c0-0.8-0.1-1-0.8-1v-0.2l1.7-0.1v1.2c0.5-0.9,1-1.2,2-1.2c0.7,0,1.2,0.2,1.5,0.7
			c0.2,0.3,0.3,0.7,0.3,1.4v2.3c0,1.1,0.1,1.1,0.8,1.2v0.2H114.5z"/>
		<path fill="#666766" d="M119.9,133.4c-0.3,0-0.5,0-1.1-0.1c-0.2,0-0.3,0-0.4,0c-0.1,0-0.3,0-0.5,0l0-1.8h0.3c0,0.5,0.1,0.8,0.3,1
			c0.3,0.4,0.7,0.6,1.2,0.6c0.8,0,1.2-0.4,1.2-1.1c0-0.3-0.1-0.5-0.3-0.7c-0.2-0.2-0.2-0.2-1.3-0.6c-1.2-0.5-1.6-0.9-1.6-1.7
			c0-0.4,0.1-0.8,0.3-1c0.3-0.4,0.8-0.6,1.4-0.6c0.3,0,0.4,0,1,0.1c0.1,0,0.2,0,0.2,0c0.1,0,0.3,0,0.5-0.1l-0.1,1.8H121
			c0-1-0.5-1.6-1.3-1.6c-0.7,0-1.1,0.4-1.1,1c0,0.3,0.1,0.5,0.3,0.6c0.2,0.2,0.4,0.3,1.2,0.6c0.8,0.3,1,0.5,1.3,0.8
			c0.2,0.3,0.4,0.6,0.4,1.1C121.7,132.8,121,133.4,119.9,133.4z"/>
		<path fill="#666766" d="M125.6,133.4c-1.6,0-2.7-1.2-2.7-2.9c0-1.8,1.1-3.1,2.7-3.1c1,0,1.8,0.5,2.1,1.4c0.1,0.3,0.2,0.6,0.2,1.2
			h-4c0,0.8,0.1,1.2,0.3,1.7c0.3,0.8,0.9,1.2,1.7,1.2c0.8,0,1.4-0.4,1.9-1.3l0.3,0.1C127.4,132.9,126.7,133.4,125.6,133.4z
			 M126.6,128.6c-0.2-0.6-0.6-0.8-1.2-0.8c-0.5,0-1,0.3-1.3,0.9c-0.2,0.3-0.2,0.6-0.3,1.2h3C126.8,129.2,126.8,128.9,126.6,128.6z"
			/>
		<path fill="#666766" d="M128.7,133.3V133c0.8,0,0.8-0.1,0.8-1.2v-3c0-0.6,0-0.8-0.2-0.9c-0.1-0.1-0.3-0.1-0.7-0.1v-0.2l1.8-0.1
			c0,0.7-0.1,1.6-0.1,2.1v2.3c0,1,0.1,1.1,0.8,1.2v0.2H128.7z M130,126.4c-0.4,0-0.6-0.3-0.6-0.6c0-0.3,0.3-0.6,0.6-0.6
			c0.3,0,0.6,0.3,0.6,0.6C130.6,126.1,130.3,126.4,130,126.4z"/>
		<path fill="#666766" d="M136.6,135.3c-0.5,0.3-1.1,0.4-2,0.4c-0.8,0-1.3-0.1-1.7-0.3c-0.4-0.2-0.6-0.6-0.6-1.1
			c0-0.5,0.1-0.6,0.8-1c-0.5-0.2-0.7-0.5-0.7-1c0-0.3,0.1-0.5,0.5-0.8l0.4-0.3c-0.3-0.2-0.4-0.3-0.6-0.5c-0.2-0.3-0.4-0.7-0.4-1.2
			c0-0.8,0.3-1.4,0.9-1.8c0.4-0.2,0.9-0.3,1.4-0.3c0.2,0,0.4,0,0.8,0.1c0.4,0.1,0.5,0.1,0.7,0.1c0.3,0,0.6,0,1.2,0v0.4h-1.1
			c0.4,0.4,0.6,0.9,0.6,1.5c0,1.2-0.9,2-2.2,2c-0.3,0-0.6,0-1-0.1c-0.4,0.2-0.6,0.4-0.6,0.7c0,0.4,0.3,0.6,1.2,0.6
			c0.2,0,0.2,0,0.5,0c0.1,0,0.2,0,0.3,0c0.8,0,1.1,0,1.4,0.1c0.6,0.2,0.9,0.6,0.9,1.2C137.4,134.4,137.1,135,136.6,135.3z
			 M135.8,133.3c-0.2,0-0.6,0-1.3,0c-0.4,0-1.1,0-1.1,0c-0.3,0.1-0.5,0.4-0.5,0.9c0,0.8,0.6,1.3,1.7,1.3c1.2,0,1.9-0.5,1.9-1.3
			C136.7,133.7,136.4,133.4,135.8,133.3z M134.6,127.7c-0.8,0-1.3,0.6-1.3,1.7c0,0.5,0.1,1,0.3,1.3c0.2,0.3,0.6,0.5,1,0.5
			c0.8,0,1.3-0.6,1.3-1.7C135.8,128.3,135.4,127.7,134.6,127.7z"/>
		<path fill="#666766" d="M141.7,133.3V133c0.4,0,0.6-0.1,0.7-0.2c0.1-0.1,0.1-0.2,0.1-0.4c0-0.1,0-0.5,0-0.6v-2.3
			c0-0.6-0.1-1-0.2-1.2c-0.2-0.4-0.5-0.6-1-0.6c-0.5,0-1,0.2-1.3,0.8c-0.2,0.4-0.4,0.9-0.4,1.4v1.9c0,1.1,0.1,1.1,0.8,1.2v0.2H138
			V133c0.8,0,0.8-0.1,0.8-1.2v-3c0-0.8-0.1-1-0.8-1v-0.2l1.7-0.1v1.2c0.5-0.9,1-1.2,2-1.2c0.7,0,1.2,0.2,1.5,0.7
			c0.2,0.3,0.3,0.7,0.3,1.4v2.3c0,1.1,0.1,1.1,0.8,1.2v0.2H141.7z"/>
		<path fill="#666766" d="M147.8,133.4c-1.6,0-2.7-1.2-2.7-2.9c0-1.8,1.1-3.1,2.7-3.1c1,0,1.8,0.5,2.1,1.4c0.1,0.3,0.2,0.6,0.2,1.2
			h-4c0,0.8,0.1,1.2,0.3,1.7c0.3,0.8,0.9,1.2,1.7,1.2c0.8,0,1.4-0.4,1.9-1.3l0.3,0.1C149.7,132.9,148.9,133.4,147.8,133.4z
			 M148.9,128.6c-0.2-0.6-0.6-0.8-1.2-0.8c-0.5,0-1,0.3-1.3,0.9c-0.2,0.3-0.2,0.6-0.3,1.2h3C149.1,129.2,149.1,128.9,148.9,128.6z"
			/>
		<path fill="#666766" d="M157.8,133.3V133c0.8,0,0.8-0.1,0.8-1.2v-2.2c0-0.8,0-1.1-0.2-1.4c-0.2-0.3-0.4-0.4-0.9-0.4
			c-0.4,0-0.7,0.2-1,0.7c-0.3,0.4-0.4,0.8-0.4,1.4v2c0,1,0.1,1.1,0.8,1.2v0.2h-2.6V133c0.8,0,0.8-0.1,0.8-1.2v-2.4
			c0-1.1-0.3-1.6-1-1.6c-0.4,0-0.8,0.2-1.1,0.6c-0.3,0.4-0.4,0.7-0.4,1.2v2.2c0,1.1,0.1,1.1,0.8,1.2v0.2h-2.6V133
			c0.8,0,0.8-0.1,0.8-1.2v-3c0-0.8-0.1-1-0.8-1v-0.2l1.7-0.1v1.2c0.4-0.8,1-1.2,1.9-1.2c0.8,0,1.4,0.5,1.5,1.3
			c0.5-0.9,1.1-1.3,1.9-1.3c0.6,0,1,0.2,1.3,0.5c0.2,0.3,0.3,0.7,0.3,1.5v2.4c0,1,0.1,1.1,0.8,1.2v0.2H157.8z"/>
		<path fill="#666766" d="M163.9,133.4c-1.6,0-2.7-1.2-2.7-2.9c0-1.8,1.1-3.1,2.7-3.1c1,0,1.8,0.5,2.1,1.4c0.1,0.3,0.2,0.6,0.2,1.2
			h-4c0,0.8,0.1,1.2,0.3,1.7c0.3,0.8,0.9,1.2,1.7,1.2c0.8,0,1.4-0.4,1.9-1.3l0.3,0.1C165.8,132.9,165.1,133.4,163.9,133.4z
			 M165,128.6c-0.2-0.6-0.6-0.8-1.2-0.8c-0.5,0-1,0.3-1.3,0.9c-0.2,0.3-0.2,0.6-0.3,1.2h3C165.2,129.2,165.2,128.9,165,128.6z"/>
		<path fill="#666766" d="M170.8,133.3V133c0.4,0,0.6-0.1,0.7-0.2c0.1-0.1,0.1-0.2,0.1-0.4c0-0.1,0-0.5,0-0.6v-2.3
			c0-0.6-0.1-1-0.2-1.2c-0.2-0.4-0.5-0.6-1-0.6c-0.5,0-1,0.2-1.3,0.8c-0.2,0.4-0.4,0.9-0.4,1.4v1.9c0,1.1,0.1,1.1,0.8,1.2v0.2h-2.6
			V133c0.8,0,0.8-0.1,0.8-1.2v-3c0-0.8-0.1-1-0.8-1v-0.2l1.7-0.1v1.2c0.5-0.9,1-1.2,2-1.2c0.7,0,1.2,0.2,1.5,0.7
			c0.2,0.3,0.3,0.7,0.3,1.4v2.3c0,1.1,0.1,1.1,0.8,1.2v0.2H170.8z"/>
		<path fill="#666766" d="M176.1,133.4c-0.6,0-1-0.2-1.2-0.6c-0.1-0.2-0.2-0.5-0.2-1.3v-3.6h-0.7v-0.3c0.7-0.1,1-0.5,1.2-1.6
			l0.5-0.1c0,0.5,0,0.9,0,1.7h1.3v0.3h-1.3v3.8c0,0.7,0,1,0.1,1.1c0.1,0.2,0.3,0.2,0.6,0.2c0.2,0,0.5-0.1,0.7-0.2l0.1,0.3
			C176.9,133.3,176.5,133.4,176.1,133.4z"/>
		<path fill="#666766" d="M41.8,147.1c-1.6,0-2.7-1.2-2.7-2.9c0-1.8,1.1-3.1,2.7-3.1c1,0,1.8,0.5,2.1,1.4c0.1,0.3,0.2,0.6,0.2,1.2
			h-4c0,0.8,0.1,1.2,0.3,1.7c0.3,0.8,0.9,1.2,1.7,1.2c0.8,0,1.4-0.4,1.9-1.3l0.3,0.1C43.7,146.6,42.9,147.1,41.8,147.1z M42.9,142.3
			c-0.2-0.6-0.6-0.8-1.2-0.8c-0.5,0-1,0.3-1.3,0.9c-0.2,0.3-0.2,0.6-0.3,1.2h3C43.1,142.9,43,142.6,42.9,142.3z"/>
		<path fill="#666766" d="M47,147.1c-0.6,0-1-0.2-1.2-0.6c-0.1-0.2-0.2-0.5-0.2-1.3v-3.6H45v-0.3c0.7-0.1,1-0.5,1.2-1.6l0.5-0.1
			c0,0.5,0,0.9,0,1.7H48v0.3h-1.3v3.8c0,0.7,0,1,0.1,1.1c0.1,0.2,0.3,0.2,0.6,0.2c0.2,0,0.5-0.1,0.7-0.2l0.1,0.3
			C47.8,147,47.4,147.1,47,147.1z"/>
		<path fill="#666766" d="M56.7,147.1c-0.3,0-0.4-0.2-0.5-0.9c-0.2,0.2-0.3,0.3-0.6,0.5c-0.5,0.4-0.9,0.5-1.5,0.5
			c-0.5,0-0.9-0.1-1.1-0.3c-0.3-0.3-0.5-0.7-0.5-1.2c0-0.9,0.6-1.5,1.7-1.7c0.6-0.1,1.2-0.2,2-0.3v-0.7c0-0.5,0-0.8-0.2-1
			c-0.1-0.3-0.5-0.4-0.9-0.4c-0.7,0-1.1,0.3-1.2,1c0,0.2,0,0.3-0.1,0.4c-0.1,0.1-0.2,0.1-0.4,0.1c-0.4,0-0.6-0.1-0.6-0.3
			c0-0.4,0.3-0.8,0.8-1.1c0.4-0.2,1-0.4,1.6-0.4c0.7,0,1.2,0.2,1.5,0.5c0.2,0.3,0.3,0.7,0.3,1.3c0,0,0,0,0,1.1l0,1.1l0,0.5
			c0,0.5,0.1,0.9,0.1,1c0.1,0.1,0.2,0.1,0.6,0.1v0.2C57.4,147,56.9,147.1,56.7,147.1z M56.2,143.8c-1,0.1-1.4,0.2-1.9,0.4
			c-0.5,0.2-0.8,0.7-0.8,1.3c0,0.7,0.4,1.2,0.9,1.2c0.6,0,1.2-0.3,1.4-0.8c0.2-0.3,0.3-0.8,0.3-1.5V143.8z M55.5,140.6l-1.4-1.5
			l0-0.2h1.2l0.6,1.5L55.5,140.6z"/>
		<path fill="#666766" d="M62.4,147v-0.2c0.7,0,0.8-0.1,0.8-1.2v-5.5c0-0.6,0-0.8-0.2-0.9c-0.1-0.1-0.2-0.1-0.6-0.1v-0.2l1.8-0.1
			c0,0.8-0.1,1.7-0.1,2.2v4.6c0,1,0.1,1.1,0.8,1.2v0.2H62.4z"/>
		<path fill="#666766" d="M66.3,141.7l-0.2-0.3c0.6-0.3,0.9-0.7,0.9-1.1c0-0.2,0-0.2-0.4-0.3c-0.3-0.1-0.5-0.3-0.5-0.6
			c0-0.4,0.3-0.7,0.8-0.7c0.5,0,0.9,0.4,0.9,1C67.7,140.5,67.2,141.3,66.3,141.7z"/>
		<path fill="#666766" d="M73.2,147.1c-0.3,0-0.4-0.2-0.5-0.9c-0.2,0.2-0.3,0.3-0.6,0.5c-0.5,0.4-0.9,0.5-1.5,0.5
			c-0.5,0-0.9-0.1-1.1-0.3c-0.3-0.3-0.5-0.7-0.5-1.2c0-0.9,0.6-1.5,1.7-1.7c0.6-0.1,1.2-0.2,2-0.3v-0.7c0-0.5,0-0.8-0.2-1
			c-0.1-0.3-0.5-0.4-0.9-0.4c-0.7,0-1.1,0.3-1.2,1c0,0.2,0,0.3-0.1,0.4c-0.1,0.1-0.2,0.1-0.4,0.1c-0.4,0-0.6-0.1-0.6-0.3
			c0-0.4,0.3-0.8,0.8-1.1c0.4-0.2,1-0.4,1.6-0.4c0.7,0,1.2,0.2,1.5,0.5c0.2,0.3,0.3,0.7,0.3,1.3c0,0,0,0,0,1.1l0,1.1l0,0.5
			c0,0.5,0.1,0.9,0.1,1c0.1,0.1,0.2,0.1,0.6,0.1v0.2C73.9,147,73.4,147.1,73.2,147.1z M72.7,143.8c-1,0.1-1.4,0.2-1.9,0.4
			c-0.5,0.2-0.8,0.7-0.8,1.3c0,0.7,0.4,1.2,0.9,1.2c0.6,0,1.2-0.3,1.4-0.8c0.2-0.3,0.3-0.8,0.3-1.5V143.8z"/>
		<path fill="#666766" d="M80.2,146.2c-0.4,0.6-1.1,0.9-1.9,0.9c-0.7,0-1-0.2-1.7-0.7v1.6c0,1,0.1,1.1,0.9,1.1v0.3H75v-0.3
			c0.8,0,0.8-0.1,0.8-1.1v-5.4c0-0.8-0.1-1-0.8-1v-0.2l1.7-0.1v1c0.4-0.7,1.1-1,1.8-1c1.4,0,2.3,1.1,2.3,2.8
			C80.8,144.9,80.6,145.7,80.2,146.2z M78.4,141.5c-0.5,0-1,0.3-1.3,0.7c-0.3,0.5-0.4,1.1-0.4,2c0,1.7,0.6,2.6,1.6,2.6
			c1,0,1.5-0.9,1.5-2.7C79.8,142.3,79.3,141.5,78.4,141.5z"/>
		<path fill="#666766" d="M86.9,146.2c-0.4,0.6-1.1,0.9-1.9,0.9c-0.7,0-1-0.2-1.7-0.7v1.6c0,1,0.1,1.1,0.9,1.1v0.3h-2.6v-0.3
			c0.8,0,0.8-0.1,0.8-1.1v-5.4c0-0.8-0.1-1-0.8-1v-0.2l1.7-0.1v1c0.4-0.7,1.1-1,1.8-1c1.4,0,2.3,1.1,2.3,2.8
			C87.6,144.9,87.3,145.7,86.9,146.2z M85.1,141.5c-0.5,0-1,0.3-1.3,0.7c-0.3,0.5-0.4,1.1-0.4,2c0,1.7,0.6,2.6,1.6,2.6
			c1,0,1.5-0.9,1.5-2.7C86.5,142.3,86,141.5,85.1,141.5z"/>
		<path fill="#666766" d="M92.2,142.3c-0.2,0-0.3-0.1-0.4-0.3c-0.1-0.2-0.1-0.3-0.3-0.3c-0.3,0-0.6,0.2-0.8,0.7
			c-0.2,0.4-0.3,0.8-0.3,1.4v1.8c0,1.1,0.1,1.1,0.8,1.2v0.2h-2.6v-0.2c0.8,0,0.8-0.1,0.8-1.2v-3c0-0.8-0.1-1-0.8-1v-0.2l1.7-0.1
			c0,0.6,0,0.7,0,0.9c0,0.1,0,0.2,0,0.4c0.4-0.9,1-1.3,1.6-1.3c0.5,0,0.9,0.3,0.9,0.7C92.8,142.1,92.5,142.3,92.2,142.3z"/>
		<path fill="#666766" d="M96,147.1c-1.6,0-2.7-1.2-2.7-2.9c0-1.8,1.1-3.1,2.7-3.1c1,0,1.8,0.5,2.1,1.4c0.1,0.3,0.2,0.6,0.2,1.2h-4
			c0,0.8,0.1,1.2,0.3,1.7c0.3,0.8,0.9,1.2,1.7,1.2c0.8,0,1.4-0.4,1.9-1.3l0.3,0.1C97.9,146.6,97.1,147.1,96,147.1z M97.1,142.3
			c-0.2-0.6-0.6-0.8-1.2-0.8c-0.5,0-1,0.3-1.3,0.9c-0.2,0.3-0.2,0.6-0.3,1.2h3C97.3,142.9,97.3,142.6,97.1,142.3z"/>
		<path fill="#666766" d="M102.9,147v-0.2c0.4,0,0.6-0.1,0.7-0.2c0.1-0.1,0.1-0.2,0.1-0.4c0-0.1,0-0.5,0-0.6v-2.3
			c0-0.6-0.1-1-0.2-1.2c-0.2-0.4-0.5-0.6-1-0.6c-0.5,0-1,0.2-1.3,0.8c-0.2,0.4-0.4,0.9-0.4,1.4v1.9c0,1.1,0.1,1.1,0.8,1.2v0.2h-2.6
			v-0.2c0.8,0,0.8-0.1,0.8-1.2v-3c0-0.8-0.1-1-0.8-1v-0.2l1.7-0.1v1.2c0.5-0.9,1-1.2,2-1.2c0.7,0,1.2,0.2,1.5,0.7
			c0.2,0.3,0.3,0.7,0.3,1.4v2.3c0,1.1,0.1,1.1,0.8,1.2v0.2H102.9z"/>
		<path fill="#666766" d="M108.2,147.1c-0.6,0-1-0.2-1.2-0.6c-0.1-0.2-0.2-0.5-0.2-1.3v-3.6h-0.7v-0.3c0.7-0.1,1-0.5,1.2-1.6
			l0.5-0.1c0,0.5,0,0.9,0,1.7h1.3v0.3h-1.3v3.8c0,0.7,0,1,0.1,1.1c0.1,0.2,0.3,0.2,0.6,0.2c0.2,0,0.5-0.1,0.7-0.2l0.1,0.3
			C109,147,108.6,147.1,108.2,147.1z"/>
		<path fill="#666766" d="M109.9,147v-0.2c0.8,0,0.8-0.1,0.8-1.2v-3c0-0.6,0-0.8-0.2-0.9c-0.1-0.1-0.3-0.1-0.7-0.1v-0.2l1.8-0.1
			c0,0.7-0.1,1.6-0.1,2.1v2.3c0,1,0.1,1.1,0.8,1.2v0.2H109.9z M111.2,140.1c-0.4,0-0.6-0.3-0.6-0.6c0-0.3,0.3-0.6,0.6-0.6
			c0.3,0,0.6,0.3,0.6,0.6C111.8,139.8,111.5,140.1,111.2,140.1z"/>
		<path fill="#666766" d="M115.5,147.1c-0.3,0-0.5,0-1.1-0.1c-0.2,0-0.3,0-0.4,0c-0.1,0-0.3,0-0.5,0l0-1.8h0.3c0,0.5,0.1,0.8,0.3,1
			c0.3,0.4,0.7,0.6,1.2,0.6c0.8,0,1.2-0.4,1.2-1.1c0-0.3-0.1-0.5-0.3-0.7c-0.2-0.2-0.2-0.2-1.3-0.6c-1.2-0.5-1.6-0.9-1.6-1.7
			c0-0.4,0.1-0.8,0.3-1c0.3-0.4,0.8-0.6,1.4-0.6c0.3,0,0.4,0,1,0.1c0.1,0,0.2,0,0.2,0c0.1,0,0.3,0,0.5-0.1l-0.1,1.8h-0.4
			c0-1-0.5-1.6-1.3-1.6c-0.7,0-1.1,0.4-1.1,1c0,0.3,0.1,0.5,0.3,0.6c0.2,0.2,0.4,0.3,1.2,0.6c0.8,0.3,1,0.5,1.3,0.8
			c0.2,0.3,0.4,0.6,0.4,1.1C117.2,146.5,116.5,147.1,115.5,147.1z"/>
		<path fill="#666766" d="M120.5,147.1c-0.3,0-0.5,0-1.1-0.1c-0.2,0-0.3,0-0.4,0c-0.1,0-0.3,0-0.5,0l0-1.8h0.3c0,0.5,0.1,0.8,0.3,1
			c0.3,0.4,0.7,0.6,1.2,0.6c0.8,0,1.2-0.4,1.2-1.1c0-0.3-0.1-0.5-0.3-0.7c-0.2-0.2-0.2-0.2-1.3-0.6c-1.2-0.5-1.6-0.9-1.6-1.7
			c0-0.4,0.1-0.8,0.3-1c0.3-0.4,0.8-0.6,1.4-0.6c0.3,0,0.4,0,1,0.1c0.1,0,0.2,0,0.2,0c0.1,0,0.3,0,0.5-0.1l-0.1,1.8h-0.4
			c0-1-0.5-1.6-1.3-1.6c-0.7,0-1.1,0.4-1.1,1c0,0.3,0.1,0.5,0.3,0.6c0.2,0.2,0.4,0.3,1.2,0.6c0.8,0.3,1,0.5,1.3,0.8
			c0.2,0.3,0.4,0.6,0.4,1.1C122.2,146.5,121.5,147.1,120.5,147.1z"/>
		<path fill="#666766" d="M127.5,147.1c-0.3,0-0.4-0.2-0.5-0.9c-0.2,0.2-0.3,0.3-0.6,0.5c-0.5,0.4-0.9,0.5-1.5,0.5
			c-0.5,0-0.9-0.1-1.1-0.3c-0.3-0.3-0.5-0.7-0.5-1.2c0-0.9,0.6-1.5,1.7-1.7c0.6-0.1,1.2-0.2,2-0.3v-0.7c0-0.5,0-0.8-0.2-1
			c-0.1-0.3-0.5-0.4-0.9-0.4c-0.7,0-1.1,0.3-1.2,1c0,0.2,0,0.3-0.1,0.4c-0.1,0.1-0.2,0.1-0.4,0.1c-0.4,0-0.6-0.1-0.6-0.3
			c0-0.4,0.3-0.8,0.8-1.1c0.4-0.2,1-0.4,1.6-0.4c0.7,0,1.2,0.2,1.5,0.5c0.2,0.3,0.3,0.7,0.3,1.3c0,0,0,0,0,1.1l0,1.1l0,0.5
			c0,0.5,0.1,0.9,0.1,1c0.1,0.1,0.2,0.1,0.6,0.1v0.2C128.2,147,127.7,147.1,127.5,147.1z M127,143.8c-1,0.1-1.4,0.2-1.9,0.4
			c-0.5,0.2-0.8,0.7-0.8,1.3c0,0.7,0.4,1.2,0.9,1.2c0.6,0,1.2-0.3,1.4-0.8c0.2-0.3,0.3-0.8,0.3-1.5V143.8z"/>
		<path fill="#666766" d="M133.9,149c-0.5,0.3-1.1,0.4-2,0.4c-0.8,0-1.3-0.1-1.7-0.3c-0.4-0.2-0.6-0.6-0.6-1.1c0-0.5,0.1-0.6,0.8-1
			c-0.5-0.2-0.7-0.5-0.7-1c0-0.3,0.1-0.5,0.5-0.8l0.4-0.3c-0.3-0.2-0.4-0.3-0.6-0.5c-0.2-0.3-0.4-0.7-0.4-1.2c0-0.8,0.3-1.4,0.9-1.8
			c0.4-0.2,0.9-0.3,1.4-0.3c0.2,0,0.4,0,0.8,0.1c0.4,0.1,0.5,0.1,0.7,0.1c0.3,0,0.6,0,1.2,0v0.4h-1.1c0.4,0.4,0.6,0.9,0.6,1.5
			c0,1.2-0.9,2-2.2,2c-0.3,0-0.6,0-1-0.1c-0.4,0.2-0.6,0.4-0.6,0.7c0,0.4,0.3,0.6,1.2,0.6c0.2,0,0.2,0,0.5,0c0.1,0,0.2,0,0.3,0
			c0.8,0,1.1,0,1.4,0.1c0.6,0.2,0.9,0.6,0.9,1.2C134.8,148.1,134.4,148.7,133.9,149z M133.1,147c-0.2,0-0.6,0-1.3,0
			c-0.4,0-1.1,0-1.1,0c-0.3,0.1-0.5,0.4-0.5,0.9c0,0.8,0.6,1.3,1.7,1.3c1.2,0,1.9-0.5,1.9-1.3C134,147.4,133.7,147.1,133.1,147z
			 M131.9,141.4c-0.8,0-1.3,0.6-1.3,1.7c0,0.5,0.1,1,0.3,1.3c0.2,0.3,0.6,0.5,1,0.5c0.8,0,1.3-0.6,1.3-1.7
			C133.2,142,132.8,141.4,131.9,141.4z"/>
		<path fill="#666766" d="M138.2,147.1c-1.6,0-2.7-1.2-2.7-2.9c0-1.8,1.1-3.1,2.7-3.1c1,0,1.8,0.5,2.1,1.4c0.1,0.3,0.2,0.6,0.2,1.2
			h-4c0,0.8,0.1,1.2,0.3,1.7c0.3,0.8,0.9,1.2,1.7,1.2c0.8,0,1.4-0.4,1.9-1.3l0.3,0.1C140.1,146.6,139.3,147.1,138.2,147.1z
			 M139.3,142.3c-0.2-0.6-0.6-0.8-1.2-0.8c-0.5,0-1,0.3-1.3,0.9c-0.2,0.3-0.2,0.6-0.3,1.2h3C139.5,142.9,139.5,142.6,139.3,142.3z"
			/>
		<path fill="#666766" d="M35.6,161.6c-0.3-1.8-0.6-2.1-2.6-2.1v6.5c0,0.7,0,0.9,0.2,1c0.1,0.1,0.4,0.1,0.9,0.1v0.3h-3.1v-0.3
			c0.5,0,0.8-0.1,0.9-0.2c0.1-0.1,0.2-0.3,0.2-1v-6.5c-2,0-2.3,0.3-2.6,2.1l-0.4,0l0.2-2.4h6.6l0.2,2.4L35.6,161.6z"/>
		<path fill="#666766" d="M38.8,167.5c-1.6,0-2.7-1.2-2.7-2.9c0-1.8,1.1-3.1,2.7-3.1c1,0,1.8,0.5,2.1,1.4c0.1,0.3,0.2,0.6,0.2,1.2
			h-4c0,0.8,0.1,1.2,0.3,1.7c0.3,0.8,0.9,1.2,1.7,1.2c0.8,0,1.4-0.4,1.9-1.3l0.3,0.1C40.7,167,39.9,167.5,38.8,167.5z M39.9,162.7
			c-0.2-0.6-0.6-0.8-1.2-0.8c-0.5,0-1,0.3-1.3,0.9c-0.2,0.3-0.2,0.6-0.3,1.2h3C40.1,163.3,40.1,163,39.9,162.7z"/>
		<path fill="#666766" d="M46.2,167.5c-0.3,0-0.4-0.2-0.5-0.9c-0.2,0.2-0.3,0.3-0.6,0.5c-0.5,0.4-0.9,0.5-1.5,0.5
			c-0.5,0-0.9-0.1-1.1-0.3c-0.3-0.3-0.5-0.7-0.5-1.2c0-0.9,0.6-1.5,1.7-1.7c0.6-0.1,1.2-0.2,2-0.3v-0.7c0-0.5,0-0.8-0.2-1
			c-0.1-0.3-0.5-0.4-0.9-0.4c-0.7,0-1.1,0.3-1.2,1c0,0.2,0,0.3-0.1,0.4c-0.1,0.1-0.2,0.1-0.4,0.1c-0.4,0-0.6-0.1-0.6-0.3
			c0-0.4,0.3-0.8,0.8-1.1c0.4-0.2,1-0.4,1.6-0.4c0.7,0,1.2,0.2,1.5,0.5c0.2,0.3,0.3,0.7,0.3,1.3c0,0,0,0,0,1.1l0,1.1l0,0.5
			c0,0.5,0.1,0.9,0.1,1c0.1,0.1,0.2,0.1,0.6,0.1v0.2C46.9,167.4,46.4,167.5,46.2,167.5z M45.7,164.2c-1,0.1-1.4,0.2-1.9,0.4
			c-0.5,0.2-0.8,0.7-0.8,1.3c0,0.7,0.4,1.2,0.9,1.2c0.6,0,1.2-0.3,1.4-0.8c0.2-0.3,0.3-0.8,0.3-1.5V164.2z"/>
		<path fill="#666766" d="M51,167.5c-1.6,0-2.7-1.2-2.7-2.9c0-1.8,1.1-3.1,2.8-3.1c0.7,0,1.3,0.2,1.7,0.6c0.3,0.3,0.5,0.6,0.5,0.9
			c0,0.2-0.2,0.3-0.6,0.3c-0.2,0-0.3,0-0.4-0.1c-0.1-0.1-0.1-0.1-0.1-0.4c-0.1-0.6-0.5-1-1.2-1c-1,0-1.6,0.9-1.6,2.6
			c0,1.7,0.7,2.8,1.9,2.8c0.8,0,1.4-0.5,1.8-1.4l0.3,0.2C52.8,167,52,167.5,51,167.5z"/>
		<path fill="#666766" d="M57.8,167.4v-0.2c0.8,0,0.8-0.1,0.8-1.2v-2.3c0-0.6-0.1-1-0.2-1.2c-0.2-0.4-0.5-0.5-1-0.5
			c-0.4,0-0.8,0.2-1.1,0.4c-0.2,0.2-0.4,0.6-0.5,0.9c-0.1,0.2-0.1,0.5-0.1,0.8v1.8c0,1.1,0.1,1.1,0.8,1.2v0.2h-2.6v-0.2
			c0.8,0,0.8-0.1,0.8-1.2v-5.5c0-1,0-1-0.8-1v-0.2l1.8-0.1c0,0.9-0.1,1.3-0.1,2.2v1.4c0.5-0.9,1.1-1.2,2-1.2c0.8,0,1.4,0.3,1.6,0.8
			c0.1,0.3,0.2,0.8,0.2,1.4v2.3c0,1,0.1,1.1,0.8,1.2v0.2H57.8z"/>
		<path fill="#666766" d="M61,167.4v-0.2c0.8,0,0.8-0.1,0.8-1.2v-3c0-0.6,0-0.8-0.2-0.9c-0.1-0.1-0.3-0.1-0.7-0.1v-0.2l1.8-0.1
			c0,0.7-0.1,1.6-0.1,2.1v2.3c0,1,0.1,1.1,0.8,1.2v0.2H61z M62.2,160.5c-0.4,0-0.6-0.3-0.6-0.6c0-0.3,0.3-0.6,0.6-0.6
			c0.3,0,0.6,0.3,0.6,0.6C62.9,160.2,62.6,160.5,62.2,160.5z"/>
		<path fill="#666766" d="M68,167.4v-0.2c0.4,0,0.6-0.1,0.7-0.2c0.1-0.1,0.1-0.2,0.1-0.4c0-0.1,0-0.5,0-0.6v-2.3
			c0-0.6-0.1-1-0.2-1.2c-0.2-0.4-0.5-0.6-1-0.6c-0.5,0-1,0.2-1.3,0.8c-0.2,0.4-0.4,0.9-0.4,1.4v1.9c0,1.1,0.1,1.1,0.8,1.2v0.2h-2.6
			v-0.2c0.8,0,0.8-0.1,0.8-1.2v-3c0-0.8-0.1-1-0.8-1v-0.2l1.7-0.1v1.2c0.5-0.9,1-1.2,2-1.2c0.7,0,1.2,0.2,1.5,0.7
			c0.2,0.3,0.3,0.7,0.3,1.4v2.3c0,1.1,0.1,1.1,0.8,1.2v0.2H68z"/>
		<path fill="#666766" d="M75.8,169.4c-0.5,0.3-1.1,0.4-2,0.4c-0.8,0-1.3-0.1-1.7-0.3c-0.4-0.2-0.6-0.6-0.6-1.1c0-0.5,0.1-0.6,0.8-1
			c-0.5-0.2-0.7-0.5-0.7-1c0-0.3,0.1-0.5,0.5-0.8l0.4-0.3c-0.3-0.2-0.4-0.3-0.6-0.5c-0.2-0.3-0.4-0.7-0.4-1.2c0-0.8,0.3-1.4,0.9-1.8
			c0.4-0.2,0.9-0.3,1.4-0.3c0.2,0,0.4,0,0.8,0.1c0.4,0.1,0.5,0.1,0.7,0.1c0.3,0,0.6,0,1.2,0v0.4h-1.1c0.4,0.4,0.6,0.9,0.6,1.5
			c0,1.2-0.9,2-2.2,2c-0.3,0-0.6,0-1-0.1c-0.4,0.2-0.6,0.4-0.6,0.7c0,0.4,0.3,0.6,1.2,0.6c0.2,0,0.2,0,0.5,0c0.1,0,0.2,0,0.3,0
			c0.8,0,1.1,0,1.4,0.1c0.6,0.2,0.9,0.6,0.9,1.2C76.6,168.5,76.3,169.1,75.8,169.4z M75,167.4c-0.2,0-0.6,0-1.3,0
			c-0.4,0-1.1,0-1.1,0c-0.3,0.1-0.5,0.4-0.5,0.9c0,0.8,0.6,1.3,1.7,1.3c1.2,0,1.9-0.5,1.9-1.3C75.9,167.8,75.6,167.5,75,167.4z
			 M73.8,161.8c-0.8,0-1.3,0.6-1.3,1.7c0,0.5,0.1,1,0.3,1.3c0.2,0.3,0.6,0.5,1,0.5c0.8,0,1.3-0.6,1.3-1.7
			C75.1,162.4,74.6,161.8,73.8,161.8z"/>
		<path fill="#666766" d="M85.2,167.5c-0.3,0-0.4-0.2-0.5-0.9c-0.2,0.2-0.3,0.3-0.6,0.5c-0.5,0.4-0.9,0.5-1.5,0.5
			c-0.5,0-0.9-0.1-1.1-0.3c-0.3-0.3-0.5-0.7-0.5-1.2c0-0.9,0.6-1.5,1.7-1.7c0.6-0.1,1.2-0.2,2-0.3v-0.7c0-0.5,0-0.8-0.2-1
			c-0.1-0.3-0.5-0.4-0.9-0.4c-0.7,0-1.1,0.3-1.2,1c0,0.2,0,0.3-0.1,0.4c-0.1,0.1-0.2,0.1-0.4,0.1c-0.4,0-0.6-0.1-0.6-0.3
			c0-0.4,0.3-0.8,0.8-1.1c0.4-0.2,1-0.4,1.6-0.4c0.7,0,1.2,0.2,1.5,0.5c0.2,0.3,0.3,0.7,0.3,1.3c0,0,0,0,0,1.1l0,1.1l0,0.5
			c0,0.5,0.1,0.9,0.1,1c0.1,0.1,0.2,0.1,0.6,0.1v0.2C85.9,167.4,85.4,167.5,85.2,167.5z M84.7,164.2c-1,0.1-1.4,0.2-1.9,0.4
			c-0.5,0.2-0.8,0.7-0.8,1.3c0,0.7,0.4,1.2,0.9,1.2c0.6,0,1.2-0.3,1.4-0.8c0.2-0.3,0.3-0.8,0.3-1.5V164.2z"/>
		<path fill="#666766" d="M90.8,167.4v-0.2c0.4,0,0.6-0.1,0.7-0.2c0.1-0.1,0.1-0.2,0.1-0.4c0-0.1,0-0.5,0-0.6v-2.3
			c0-0.6-0.1-1-0.2-1.2c-0.2-0.4-0.5-0.6-1-0.6c-0.5,0-1,0.2-1.3,0.8c-0.2,0.4-0.4,0.9-0.4,1.4v1.9c0,1.1,0.1,1.1,0.8,1.2v0.2h-2.6
			v-0.2c0.8,0,0.8-0.1,0.8-1.2v-3c0-0.8-0.1-1-0.8-1v-0.2l1.7-0.1v1.2c0.5-0.9,1-1.2,2-1.2c0.7,0,1.2,0.2,1.5,0.7
			c0.2,0.3,0.3,0.7,0.3,1.4v2.3c0,1.1,0.1,1.1,0.8,1.2v0.2H90.8z"/>
		<path fill="#666766" d="M98.5,167.5l0-1c-0.5,0.7-1.1,1-1.9,1c-0.6,0-1.2-0.3-1.7-0.8c-0.4-0.5-0.6-1.2-0.6-2.1
			c0-1.9,1-3.1,2.5-3.1c0.7,0,1.2,0.2,1.6,0.8v-1.7c0-1.1,0-1.1-0.8-1.1v-0.2l1.8-0.1c0,0.7-0.1,1.4-0.1,2.2v4.4
			c0,1.1,0,1.1,0.1,1.2c0.1,0.1,0.2,0.2,0.5,0.2h0.1v0.2L98.5,167.5z M96.9,161.8c-1,0-1.6,1-1.6,2.7c0,1.7,0.5,2.7,1.5,2.7
			c1.1,0,1.7-1,1.7-2.7C98.5,162.8,97.9,161.8,96.9,161.8z"/>
		<path fill="#666766" d="M110.6,167.4h-5.9v-0.3c0.9,0,1-0.1,1-1.1v-5.3c0-1-0.1-1.1-1-1.1v-0.3h3v0.3c-0.9,0-1,0.1-1,1.1v6.4h1.6
			c1.3,0,1.8-0.4,2.2-1.9l0.3,0L110.6,167.4z"/>
		<path fill="#666766" d="M114.1,167.5c-1.6,0-2.7-1.2-2.7-2.9c0-1.8,1.1-3.1,2.7-3.1c1,0,1.8,0.5,2.1,1.4c0.1,0.3,0.2,0.6,0.2,1.2
			h-4c0,0.8,0.1,1.2,0.3,1.7c0.3,0.8,0.9,1.2,1.7,1.2c0.8,0,1.4-0.4,1.9-1.3l0.3,0.1C116,167,115.2,167.5,114.1,167.5z M115.2,162.7
			c-0.2-0.6-0.6-0.8-1.2-0.8c-0.5,0-1,0.3-1.3,0.9c-0.2,0.3-0.2,0.6-0.3,1.2h3C115.4,163.3,115.4,163,115.2,162.7z"/>
		<path fill="#666766" d="M121.5,167.5c-0.3,0-0.4-0.2-0.5-0.9c-0.2,0.2-0.3,0.3-0.6,0.5c-0.5,0.4-0.9,0.5-1.5,0.5
			c-0.5,0-0.9-0.1-1.1-0.3c-0.3-0.3-0.5-0.7-0.5-1.2c0-0.9,0.6-1.5,1.7-1.7c0.6-0.1,1.2-0.2,2-0.3v-0.7c0-0.5,0-0.8-0.2-1
			c-0.1-0.3-0.5-0.4-0.9-0.4c-0.7,0-1.1,0.3-1.2,1c0,0.2,0,0.3-0.1,0.4c-0.1,0.1-0.2,0.1-0.4,0.1c-0.4,0-0.6-0.1-0.6-0.3
			c0-0.4,0.3-0.8,0.8-1.1c0.4-0.2,1-0.4,1.6-0.4c0.7,0,1.2,0.2,1.5,0.5c0.2,0.3,0.3,0.7,0.3,1.3c0,0,0,0,0,1.1l0,1.1l0,0.5
			c0,0.5,0.1,0.9,0.1,1c0.1,0.1,0.2,0.1,0.6,0.1v0.2C122.2,167.4,121.7,167.5,121.5,167.5z M121,164.2c-1,0.1-1.4,0.2-1.9,0.4
			c-0.5,0.2-0.8,0.7-0.8,1.3c0,0.7,0.4,1.2,0.9,1.2c0.6,0,1.2-0.3,1.4-0.8c0.2-0.3,0.3-0.8,0.3-1.5V164.2z"/>
		<path fill="#666766" d="M127,162.7c-0.2,0-0.3-0.1-0.4-0.3c-0.1-0.2-0.1-0.3-0.3-0.3c-0.3,0-0.6,0.2-0.8,0.7
			c-0.2,0.4-0.3,0.8-0.3,1.4v1.8c0,1.1,0.1,1.1,0.8,1.2v0.2h-2.6v-0.2c0.8,0,0.8-0.1,0.8-1.2v-3c0-0.8-0.1-1-0.8-1v-0.2l1.7-0.1
			c0,0.6,0,0.7,0,0.9c0,0.1,0,0.2,0,0.4c0.4-0.9,1-1.3,1.6-1.3c0.5,0,0.9,0.3,0.9,0.7C127.6,162.5,127.4,162.7,127,162.7z"/>
		<path fill="#666766" d="M131.7,167.4v-0.2c0.4,0,0.6-0.1,0.7-0.2c0.1-0.1,0.1-0.2,0.1-0.4c0-0.1,0-0.5,0-0.6v-2.3
			c0-0.6-0.1-1-0.2-1.2c-0.2-0.4-0.5-0.6-1-0.6c-0.5,0-1,0.2-1.3,0.8c-0.2,0.4-0.4,0.9-0.4,1.4v1.9c0,1.1,0.1,1.1,0.8,1.2v0.2H128
			v-0.2c0.8,0,0.8-0.1,0.8-1.2v-3c0-0.8-0.1-1-0.8-1v-0.2l1.7-0.1v1.2c0.5-0.9,1-1.2,2-1.2c0.7,0,1.2,0.2,1.5,0.7
			c0.2,0.3,0.3,0.7,0.3,1.4v2.3c0,1.1,0.1,1.1,0.8,1.2v0.2H131.7z"/>
		<path fill="#666766" d="M134.9,167.4v-0.2c0.8,0,0.8-0.1,0.8-1.2v-3c0-0.6,0-0.8-0.2-0.9c-0.1-0.1-0.3-0.1-0.7-0.1v-0.2l1.8-0.1
			c0,0.7-0.1,1.6-0.1,2.1v2.3c0,1,0.1,1.1,0.8,1.2v0.2H134.9z M136.2,160.5c-0.4,0-0.6-0.3-0.6-0.6c0-0.3,0.3-0.6,0.6-0.6
			c0.3,0,0.6,0.3,0.6,0.6C136.8,160.2,136.5,160.5,136.2,160.5z"/>
		<path fill="#666766" d="M142,167.4v-0.2c0.4,0,0.6-0.1,0.7-0.2c0.1-0.1,0.1-0.2,0.1-0.4c0-0.1,0-0.5,0-0.6v-2.3
			c0-0.6-0.1-1-0.2-1.2c-0.2-0.4-0.5-0.6-1-0.6c-0.5,0-1,0.2-1.3,0.8c-0.2,0.4-0.4,0.9-0.4,1.4v1.9c0,1.1,0.1,1.1,0.8,1.2v0.2h-2.6
			v-0.2c0.8,0,0.8-0.1,0.8-1.2v-3c0-0.8-0.1-1-0.8-1v-0.2l1.7-0.1v1.2c0.5-0.9,1-1.2,2-1.2c0.7,0,1.2,0.2,1.5,0.7
			c0.2,0.3,0.3,0.7,0.3,1.4v2.3c0,1.1,0.1,1.1,0.8,1.2v0.2H142z"/>
		<path fill="#666766" d="M149.7,169.4c-0.5,0.3-1.1,0.4-2,0.4c-0.8,0-1.3-0.1-1.7-0.3c-0.4-0.2-0.6-0.6-0.6-1.1
			c0-0.5,0.1-0.6,0.8-1c-0.5-0.2-0.7-0.5-0.7-1c0-0.3,0.1-0.5,0.5-0.8l0.4-0.3c-0.3-0.2-0.4-0.3-0.6-0.5c-0.2-0.3-0.4-0.7-0.4-1.2
			c0-0.8,0.3-1.4,0.9-1.8c0.4-0.2,0.9-0.3,1.4-0.3c0.2,0,0.4,0,0.8,0.1c0.4,0.1,0.5,0.1,0.7,0.1c0.3,0,0.6,0,1.2,0v0.4h-1.1
			c0.4,0.4,0.6,0.9,0.6,1.5c0,1.2-0.9,2-2.2,2c-0.3,0-0.6,0-1-0.1c-0.4,0.2-0.6,0.4-0.6,0.7c0,0.4,0.3,0.6,1.2,0.6
			c0.2,0,0.2,0,0.5,0c0.1,0,0.2,0,0.3,0c0.8,0,1.1,0,1.4,0.1c0.6,0.2,0.9,0.6,0.9,1.2C150.6,168.5,150.2,169.1,149.7,169.4z
			 M149,167.4c-0.2,0-0.6,0-1.3,0c-0.4,0-1.1,0-1.1,0c-0.3,0.1-0.5,0.4-0.5,0.9c0,0.8,0.6,1.3,1.7,1.3c1.2,0,1.9-0.5,1.9-1.3
			C149.8,167.8,149.6,167.5,149,167.4z M147.8,161.8c-0.8,0-1.3,0.6-1.3,1.7c0,0.5,0.1,1,0.3,1.3c0.2,0.3,0.6,0.5,1,0.5
			c0.8,0,1.3-0.6,1.3-1.7C149,162.4,148.6,161.8,147.8,161.8z"/>
		<path fill="#666766" d="M53.1,180.6c-0.5,0.4-1.1,0.6-1.8,0.6c-0.4,0-0.7,0-1.5-0.2c-0.1,0-0.3,0-0.4,0c-0.2,0-0.4,0-0.8,0.1
			l0.1-2.3H49c0,0.7,0.2,1.1,0.5,1.4c0.4,0.4,0.9,0.6,1.7,0.6c1,0,1.6-0.5,1.6-1.5c0-0.9-0.4-1.3-2.1-2.1c-1-0.5-1.3-0.7-1.6-1
			c-0.3-0.3-0.5-0.8-0.5-1.3c0-0.7,0.2-1.2,0.7-1.6c0.4-0.4,0.9-0.5,1.6-0.5c0.4,0,0.6,0,1.3,0.2c0.2,0,0.3,0.1,0.4,0.1
			c0.2,0,0.4-0.1,0.7-0.2l-0.1,2.2h-0.4c0-0.6-0.1-0.9-0.3-1.2c-0.3-0.5-0.9-0.8-1.6-0.8c-0.5,0-0.9,0.2-1.2,0.5
			c-0.2,0.3-0.3,0.6-0.3,1c0,0.7,0.4,1.1,1.7,1.7c1.4,0.7,1.9,1,2.2,1.5c0.2,0.3,0.3,0.7,0.3,1.2C53.7,179.7,53.5,180.2,53.1,180.6z
			"/>
		<path fill="#666766" d="M59,181.2c0-0.3-0.1-0.6-0.1-1.2c-0.4,0.8-1.2,1.2-2,1.2c-0.7,0-1.3-0.3-1.5-0.9c-0.1-0.3-0.2-0.8-0.2-1.7
			v-1.9c0-0.6,0-0.8-0.2-0.9c-0.1-0.1-0.2-0.1-0.4-0.1c-0.1,0-0.1,0-0.2,0v-0.2l1.7-0.1c-0.1,1-0.1,1.3-0.1,2.1v1
			c0,1.1,0,1.4,0.2,1.8c0.1,0.4,0.4,0.6,0.9,0.6c0.6,0,1.2-0.4,1.5-1.1c0.2-0.4,0.2-0.6,0.2-1.3v-1.7c0-0.6,0-0.8-0.2-0.9
			c-0.1-0.1-0.2-0.1-0.4-0.1h-0.2v-0.2l1.7-0.1c0,0.8-0.1,1.6-0.1,2.1v2.1c0,1.1,0.1,1.3,0.7,1.3h0.1v0.2L59,181.2z"/>
		<path fill="#666766" d="M66.4,180.3c-0.4,0.6-1.1,0.9-1.9,0.9c-0.7,0-1-0.2-1.7-0.7v1.6c0,1,0.1,1.1,0.9,1.1v0.3h-2.6v-0.3
			c0.8,0,0.8-0.1,0.8-1.1v-5.4c0-0.8-0.1-1-0.8-1v-0.2l1.7-0.1v1c0.4-0.7,1.1-1,1.8-1c1.4,0,2.3,1.1,2.3,2.8
			C67,179,66.8,179.8,66.4,180.3z M64.6,175.6c-0.5,0-1,0.3-1.3,0.7c-0.3,0.5-0.4,1.1-0.4,2c0,1.7,0.6,2.6,1.6,2.6
			c1,0,1.5-0.9,1.5-2.7C66,176.4,65.5,175.6,64.6,175.6z"/>
		<path fill="#666766" d="M73.1,180.3c-0.4,0.6-1.1,0.9-1.9,0.9c-0.7,0-1-0.2-1.7-0.7v1.6c0,1,0.1,1.1,0.9,1.1v0.3h-2.6v-0.3
			c0.8,0,0.8-0.1,0.8-1.1v-5.4c0-0.8-0.1-1-0.8-1v-0.2l1.7-0.1v1c0.4-0.7,1.1-1,1.8-1c1.4,0,2.3,1.1,2.3,2.8
			C73.8,179,73.5,179.8,73.1,180.3z M71.3,175.6c-0.5,0-1,0.3-1.3,0.7c-0.3,0.5-0.4,1.1-0.4,2c0,1.7,0.6,2.6,1.6,2.6
			c1,0,1.5-0.9,1.5-2.7C72.7,176.4,72.2,175.6,71.3,175.6z"/>
		<path fill="#666766" d="M77.6,181.2c-1.6,0-2.7-1.2-2.7-2.9c0-0.9,0.3-1.8,0.8-2.3c0.5-0.5,1.2-0.8,2-0.8c1.6,0,2.7,1.2,2.7,2.9
			C80.4,180.1,79.3,181.2,77.6,181.2z M77.6,175.5c-1.1,0-1.7,1-1.7,2.7c0,1.8,0.6,2.8,1.7,2.8c1.1,0,1.7-1,1.7-2.7
			C79.3,176.5,78.7,175.5,77.6,175.5z"/>
		<path fill="#666766" d="M84.9,176.4c-0.2,0-0.3-0.1-0.4-0.3c-0.1-0.2-0.1-0.3-0.3-0.3c-0.3,0-0.6,0.2-0.8,0.7
			c-0.2,0.4-0.3,0.8-0.3,1.4v1.8c0,1.1,0.1,1.1,0.8,1.2v0.2h-2.6v-0.2c0.8,0,0.8-0.1,0.8-1.2v-3c0-0.8-0.1-1-0.8-1v-0.2l1.7-0.1
			c0,0.6,0,0.7,0,0.9c0,0.1,0,0.2,0,0.4c0.4-0.9,1-1.3,1.6-1.3c0.5,0,0.9,0.3,0.9,0.7C85.5,176.2,85.3,176.4,84.9,176.4z"/>
		<path fill="#666766" d="M88,181.2c-0.6,0-1-0.2-1.2-0.6c-0.1-0.2-0.2-0.5-0.2-1.3v-3.6H86v-0.3c0.7-0.1,1-0.5,1.2-1.6l0.5-0.1
			c0,0.5,0,0.9,0,1.7H89v0.3h-1.3v3.8c0,0.7,0,1,0.1,1.1c0.1,0.2,0.3,0.2,0.6,0.2c0.2,0,0.5-0.1,0.7-0.2l0.1,0.3
			C88.8,181.1,88.4,181.2,88,181.2z"/>
		<path fill="#666766" d="M98.2,180.6c-0.5,0.4-1.1,0.6-1.8,0.6c-0.4,0-0.7,0-1.5-0.2c-0.1,0-0.3,0-0.4,0c-0.2,0-0.4,0-0.8,0.1
			l0.1-2.3h0.4c0,0.7,0.2,1.1,0.5,1.4c0.4,0.4,0.9,0.6,1.7,0.6c1,0,1.6-0.5,1.6-1.5c0-0.9-0.4-1.3-2.1-2.1c-1-0.5-1.3-0.7-1.6-1
			c-0.3-0.3-0.5-0.8-0.5-1.3c0-0.7,0.2-1.2,0.7-1.6c0.4-0.4,0.9-0.5,1.6-0.5c0.4,0,0.6,0,1.3,0.2c0.2,0,0.3,0.1,0.4,0.1
			c0.2,0,0.4-0.1,0.7-0.2l-0.1,2.2H98c0-0.6-0.1-0.9-0.3-1.2c-0.3-0.5-0.9-0.8-1.6-0.8c-0.5,0-0.9,0.2-1.2,0.5
			c-0.2,0.3-0.3,0.6-0.3,1c0,0.7,0.4,1.1,1.7,1.7c1.4,0.7,1.9,1,2.2,1.5c0.2,0.3,0.3,0.7,0.3,1.2C98.9,179.7,98.6,180.2,98.2,180.6z
			"/>
		<path fill="#666766" d="M102.7,181.2c-1.6,0-2.7-1.2-2.7-2.9c0-1.8,1.1-3.1,2.7-3.1c1,0,1.8,0.5,2.1,1.4c0.1,0.3,0.2,0.6,0.2,1.2
			h-4c0,0.8,0.1,1.2,0.3,1.7c0.3,0.8,0.9,1.2,1.7,1.2c0.8,0,1.4-0.4,1.9-1.3l0.3,0.1C104.5,180.7,103.8,181.2,102.7,181.2z
			 M103.8,176.4c-0.2-0.6-0.6-0.8-1.2-0.8c-0.5,0-1,0.3-1.3,0.9c-0.2,0.3-0.2,0.6-0.3,1.2h3C104,177,103.9,176.7,103.8,176.4z"/>
		<path fill="#666766" d="M109.4,176.4c-0.2,0-0.3-0.1-0.4-0.3c-0.1-0.2-0.1-0.3-0.3-0.3c-0.3,0-0.6,0.2-0.8,0.7
			c-0.2,0.4-0.3,0.8-0.3,1.4v1.8c0,1.1,0.1,1.1,0.8,1.2v0.2h-2.6v-0.2c0.8,0,0.8-0.1,0.8-1.2v-3c0-0.8-0.1-1-0.8-1v-0.2l1.7-0.1
			c0,0.6,0,0.7,0,0.9c0,0.1,0,0.2,0,0.4c0.4-0.9,1-1.3,1.6-1.3c0.5,0,0.9,0.3,0.9,0.7C110,176.2,109.8,176.4,109.4,176.4z"/>
		<path fill="#666766" d="M115.1,176.8l-1.6,4.4h-0.6l-1.8-4.7c-0.2-0.7-0.4-0.8-0.9-0.8v-0.2h2.5v0.2c-0.5,0-0.7,0.1-0.7,0.4
			c0,0.1,0.1,0.4,0.2,0.6l1.3,3.6l1.3-3.5c0.1-0.2,0.1-0.5,0.1-0.6c0-0.3-0.3-0.4-0.9-0.5v-0.2h2.3v0.2
			C115.7,175.7,115.4,175.9,115.1,176.8z"/>
		<path fill="#666766" d="M116.7,181.1v-0.2c0.8,0,0.8-0.1,0.8-1.2v-3c0-0.6,0-0.8-0.2-0.9c-0.1-0.1-0.3-0.1-0.7-0.1v-0.2l1.8-0.1
			c0,0.7-0.1,1.6-0.1,2.1v2.3c0,1,0.1,1.1,0.8,1.2v0.2H116.7z M118,174.2c-0.4,0-0.6-0.3-0.6-0.6c0-0.3,0.3-0.6,0.6-0.6
			c0.3,0,0.6,0.3,0.6,0.6C118.6,173.9,118.3,174.2,118,174.2z"/>
		<path fill="#666766" d="M122.9,181.2c-1.6,0-2.7-1.2-2.7-2.9c0-1.8,1.1-3.1,2.8-3.1c0.7,0,1.3,0.2,1.7,0.6
			c0.3,0.3,0.5,0.6,0.5,0.9c0,0.2-0.2,0.3-0.6,0.3c-0.2,0-0.3,0-0.4-0.1c-0.1-0.1-0.1-0.1-0.1-0.4c-0.1-0.6-0.5-1-1.2-1
			c-1,0-1.6,0.9-1.6,2.6c0,1.7,0.7,2.8,1.9,2.8c0.8,0,1.4-0.5,1.8-1.4l0.3,0.2C124.8,180.7,124,181.2,122.9,181.2z"/>
		<path fill="#666766" d="M128.8,181.2c-1.6,0-2.7-1.2-2.7-2.9c0-1.8,1.1-3.1,2.7-3.1c1,0,1.8,0.5,2.1,1.4c0.1,0.3,0.2,0.6,0.2,1.2
			h-4c0,0.8,0.1,1.2,0.3,1.7c0.3,0.8,0.9,1.2,1.7,1.2c0.8,0,1.4-0.4,1.9-1.3l0.3,0.1C130.7,180.7,129.9,181.2,128.8,181.2z
			 M129.9,176.4c-0.2-0.6-0.6-0.8-1.2-0.8c-0.5,0-1,0.3-1.3,0.9c-0.2,0.3-0.2,0.6-0.3,1.2h3C130.1,177,130.1,176.7,129.9,176.4z"/>
	</g>
	<g>
		<path fill="#666766" d="M42.8,103.8c-0.1-0.7-0.2-1.7-0.2-3.2c-1.2,2.1-3.2,3.3-5.5,3.3c-2,0-3.5-0.9-4.1-2.6
			c-0.3-0.8-0.4-2.1-0.4-4.8v-5.1c0-1.6-0.1-2.2-0.5-2.5c-0.2-0.2-0.5-0.2-1-0.3c-0.4,0-0.4,0-0.6,0v-0.7l4.8-0.3
			c-0.2,2.9-0.2,3.6-0.2,5.7v2.7c0,3.1,0.1,3.9,0.4,5c0.4,1.1,1.2,1.7,2.5,1.7c1.7,0,3.2-1.1,4-3c0.5-1,0.6-1.7,0.6-3.6v-4.7
			c0-1.6-0.1-2.2-0.5-2.5c-0.2-0.2-0.5-0.3-1-0.3h-0.6v-0.7l4.8-0.3c-0.1,2.3-0.2,4.3-0.2,5.7v5.8c0,3.1,0.3,3.6,1.9,3.6h0.2v0.7
			L42.8,103.8z"/>
		<path fill="#666766" d="M55,84.4c1.8-2.3,4.5-3.5,7.8-3.5c3.3,0,5.9,1.2,7.8,3.5c1.7,2.1,2.5,4.8,2.5,8c0,3.2-0.9,5.9-2.5,8
			c-1.9,2.4-4.5,3.5-7.8,3.5c-3.3,0-6-1.2-7.8-3.5c-1.7-2.1-2.5-4.8-2.5-8C52.4,89.2,53.3,86.6,55,84.4z M57.2,99.8
			c1.2,2.2,3.2,3.3,5.6,3.3c2.5,0,4.4-1.2,5.6-3.3c1.1-2,1.7-4.4,1.7-7.4c0-3-0.6-5.4-1.7-7.4c-1.2-2.2-3.2-3.3-5.6-3.3
			c-2.5,0-4.4,1.2-5.6,3.3c-1.1,2-1.7,4.4-1.7,7.4C55.5,95.4,56.1,97.8,57.2,99.8z"/>
		<path fill="#666766" d="M80.1,99.2c0,1.8,0.1,2.6,0.4,3c0.3,0.4,0.8,0.6,1.5,0.6c0.7,0,1.3-0.2,1.9-0.6l0.3,0.8
			c-1,0.5-2,0.8-3.1,0.8c-1.5,0-2.6-0.5-3.2-1.5c-0.3-0.6-0.4-1.3-0.4-3.6v-9.9h-1.9v-0.7c1.8-0.2,2.7-1.3,3.2-4.2l1.4-0.4
			c-0.1,1.3-0.1,2.5-0.1,4.5h3.7v0.8h-3.7V99.2z"/>
		<path fill="#666766" d="M90.2,99.2c0,1.8,0.1,2.6,0.4,3c0.3,0.4,0.8,0.6,1.5,0.6c0.7,0,1.3-0.2,1.9-0.6l0.3,0.8
			c-1,0.5-2,0.8-3.1,0.8c-1.5,0-2.6-0.5-3.2-1.5c-0.3-0.6-0.4-1.3-0.4-3.6v-9.9h-1.9v-0.7c1.8-0.2,2.7-1.3,3.2-4.2l1.4-0.4
			c-0.1,1.3-0.1,2.5-0.1,4.5h3.7v0.8h-3.7V99.2z"/>
		<path fill="#666766" d="M110.7,103.5c-1.2,0.2-2.5,0.3-3.2,0.3c-0.9,0-1.2-0.5-1.3-2.5c-0.5,0.6-0.9,0.9-1.5,1.3
			c-1.3,1-2.4,1.3-4,1.3c-1.4,0-2.4-0.3-3.1-0.9c-0.8-0.7-1.3-2-1.3-3.2c0-2.4,1.5-4,4.5-4.7c1.6-0.4,3.2-0.6,5.5-0.7v-1.9
			c0-1.4-0.1-2.1-0.4-2.8c-0.4-0.8-1.3-1.2-2.5-1.2c-2,0-3.1,0.9-3.2,2.8c0,0.6-0.1,0.9-0.3,1c-0.2,0.2-0.6,0.2-1.1,0.2
			c-1,0-1.5-0.3-1.5-0.9c0-1.1,0.8-2.2,2.1-2.9c1.2-0.6,2.7-1,4.5-1c2,0,3.4,0.5,4.1,1.3c0.6,0.8,0.9,1.8,0.9,3.5
			c0,0.1,0,0.1-0.1,3.1l0,2.9l0,1.4c0,1.3,0.2,2.4,0.3,2.6c0.2,0.2,0.6,0.3,1.7,0.3V103.5z M106.2,95c-2.7,0.2-3.9,0.5-5.1,1.1
			C99.7,96.8,99,98,99,99.6c0,1.9,1,3.2,2.6,3.2c1.6,0,3.2-0.9,3.9-2.2c0.5-0.9,0.7-2.1,0.7-4.2V95z"/>
		<path fill="#666766" d="M118.3,103.7h-1.6L112.9,91c-0.5-1.7-0.9-2.1-2.4-2.2v-0.7h6.8v0.7c-1.5,0.1-2.1,0.4-2.1,1.1
			c0,0.2,0.1,0.7,0.3,1.3l2.8,9.6l4-12.4h1.3l3.9,12.4l2.7-9c0.2-0.8,0.4-1.3,0.4-1.8c0-0.5-0.3-0.9-0.9-1.1
			c-0.4-0.1-0.6-0.2-1.4-0.2v-0.7h6v0.7c-1.7,0.1-2.3,0.7-3,3l-3.7,11.9h-1.6l-3.8-11.8L118.3,103.7z"/>
		<path fill="#666766" d="M148.9,103.5c-1.2,0.2-2.5,0.3-3.2,0.3c-0.9,0-1.2-0.5-1.3-2.5c-0.5,0.6-0.9,0.9-1.5,1.3
			c-1.3,1-2.4,1.3-4,1.3c-1.3,0-2.4-0.3-3.1-0.9c-0.8-0.7-1.3-2-1.3-3.2c0-2.4,1.5-4,4.5-4.7c1.6-0.4,3.2-0.6,5.5-0.7v-1.9
			c0-1.4-0.1-2.1-0.4-2.8c-0.4-0.8-1.3-1.2-2.5-1.2c-2,0-3.1,0.9-3.2,2.8c0,0.6-0.1,0.9-0.3,1c-0.2,0.2-0.6,0.2-1.1,0.2
			c-1,0-1.5-0.3-1.5-0.9c0-1.1,0.8-2.2,2.1-2.9c1.2-0.6,2.7-1,4.5-1c2,0,3.4,0.5,4.1,1.3c0.6,0.8,0.9,1.8,0.9,3.5
			c0,0.1,0,0.1-0.1,3.1l0,2.9l0,1.4c0,1.3,0.2,2.4,0.3,2.6c0.2,0.2,0.6,0.3,1.7,0.3V103.5z M144.5,95c-2.7,0.2-3.9,0.5-5.1,1.1
			c-1.3,0.6-2.1,1.9-2.1,3.5c0,1.9,1,3.2,2.6,3.2c1.6,0,3.2-0.9,3.9-2.2c0.5-0.9,0.7-2.1,0.7-4.2V95z"/>
		<g>
			<path fill="#666766" d="M75.2,8.3c-1.3,0-7,0-7,0s0,2.7,0,3.7c-1.8,0-6.9,0-6.9,0v54.3h57.1V12c0,0-5.1,0-6.9,0
				c0-1.1,0-3.7,0-3.7s-5.7,0-7,0c-3-4.9-8.1-7.5-14.6-7.5C83.3,0.7,78.2,3.4,75.2,8.3z M76,11.3h0.9l0.4-0.8
				c3-5.6,8.4-6.8,12.4-6.8c4,0,9.4,1.2,12.4,6.7l0.4,0.8c0,0,4,0,5.8,0c0,1.1,0,3.7,0,3.7s5.1,0,6.9,0c0,2.8,0,45.4,0,48.2
				c-2.8,0-48.2,0-51,0c0-2.8,0-45.4,0-48.2c1.8,0,6.9,0,6.9,0s0-2.7,0-3.7C73,11.3,76,11.3,76,11.3z"/>
		</g>
		<g>
			<g>
				<polygon fill="#666766" points="67.4,55.1 112.1,55.1 112.1,56.7 67.4,56.7 67.4,55.1 				"/>
				<path fill="#666766" d="M89.8,55.9"/>
			</g>
		</g>
		<g>
			<g>
				<polygon fill="#666766" points="66.1,58 113.4,58 113.4,59.7 66.1,59.7 66.1,58 				"/>
				<path fill="#666766" d="M89.8,58.8"/>
			</g>
		</g>
		<g>
			<path fill="#666766" d="M89.3,18.4l-22.3,8l1,2.9c0,0,20.8-7.5,21.8-7.8c1,0.4,21.8,7.8,21.8,7.8l1-2.9l-22.8-8.2L89.3,18.4z"/>
		</g>
		<path fill="#666766" d="M109,50.4l-0.4-17c0.1,0.1,0.3,0.1,0.4,0.1c0.5,0,0.9-0.4,0.9-0.9c0-0.3-0.1-0.5-0.3-0.7h0.8v-1.7H69.1
			v1.7h0.8c-0.2,0.2-0.3,0.4-0.3,0.7c0,0.5,0.4,0.9,0.9,0.9c0.2,0,0.3,0,0.4-0.1l-0.4,17h-1.6v2.8h41.6v-2.8H109z M79.2,50.4h-4.8
			l-0.4-17c0.1,0.1,0.3,0.1,0.4,0.1c0.5,0,0.9-0.4,0.9-0.9c0-0.3-0.1-0.5-0.3-0.7h3.4c-0.2,0.2-0.3,0.4-0.3,0.7
			c0,0.5,0.4,0.9,0.9,0.9c0.2,0,0.3,0,0.4-0.1L79.2,50.4z M87.8,50.4H83l-0.4-17c0.1,0.1,0.3,0.1,0.4,0.1c0.5,0,0.9-0.4,0.9-0.9
			c0-0.3-0.1-0.5-0.3-0.7h3.4c-0.2,0.2-0.3,0.4-0.3,0.7c0,0.5,0.4,0.9,0.9,0.9c0.2,0,0.3,0,0.4-0.1L87.8,50.4z M96.5,50.4h-4.8
			l-0.4-17c0.1,0.1,0.3,0.1,0.4,0.1c0.5,0,0.9-0.4,0.9-0.9c0-0.3-0.1-0.5-0.3-0.7h3.4c-0.2,0.2-0.3,0.4-0.3,0.7
			c0,0.5,0.4,0.9,0.9,0.9c0.2,0,0.3,0,0.4-0.1L96.5,50.4z M105.1,50.4h-4.8l-0.4-17c0.1,0.1,0.3,0.1,0.4,0.1c0.5,0,1-0.4,1-0.9
			c0-0.3-0.1-0.5-0.3-0.7h3.4c-0.2,0.2-0.3,0.4-0.3,0.7c0,0.5,0.4,0.9,0.9,0.9c0.1,0,0.3,0,0.4-0.1L105.1,50.4z"/>
	</g>
</g>
</svg>
